<svg width="17" height="28" viewBox="0 0 17 28" fill="none" xmlns="http://www.w3.org/2000/svg">
<path d="M12.8438 27.3361L0.680083 15.4381C0.257947 15.016 0.0390625 14.547 0.0390625 13.9998C0.0390625 13.4525 0.257947 12.9522 0.695717 12.5457L12.8595 0.663414C13.2034 0.319452 13.6412 0.131836 14.1415 0.131836C15.189 0.131836 16.002 0.517698 16.002 1.54958C16.002 2.04989 15.5393 2.5685 15.1798 2.92809L3.94111 13.9998L15.1798 24.8063C15.5393 25.1659 16.002 25.6244 16.002 26.1404C16.002 27.1723 15.189 27.8677 14.1415 27.8677C13.6412 27.8677 13.2034 27.6801 12.8438 27.3361Z" fill="current"/>
</svg>
