<svg width="21" height="21" viewBox="0 0 21 21" fill="current" xmlns="http://www.w3.org/2000/svg">
<path opacity="1.0" d="M19.8233 16.0376L16.4602 12.6328C16.9698 11.4979 17.2755 10.3629 17.2755 9.12482C17.2755 6.85495 16.4602 4.79144 14.8297 3.2438C11.5685 -0.057829 6.37107 -0.057829 3.10992 3.2438C-0.151224 6.54543 -0.151224 11.8074 3.10992 15.109C4.63858 16.6567 6.77871 17.5852 8.91884 17.5852C10.1418 17.5852 11.3647 17.2757 12.3838 16.7598L15.7469 20.1646C16.2564 20.6805 17.0717 20.9901 17.7851 20.9901C18.4985 20.9901 19.2118 20.6805 19.8233 20.1646C20.9443 18.9265 20.9443 17.0694 19.8233 16.0376ZM4.53667 13.4582C2.09081 10.982 2.09081 6.95813 4.53667 4.58509C5.7596 3.34698 7.28827 2.72792 8.91884 2.72792C10.5494 2.72792 12.0781 3.34698 13.301 4.58509C14.5239 5.8232 15.1354 7.37083 15.1354 9.02165C15.1354 10.6725 14.5239 12.3233 13.301 13.4582C12.0781 14.5931 10.5494 15.3154 8.91884 15.3154C7.28827 15.3154 5.65769 14.6963 4.53667 13.4582Z" fill="current"/>
</svg>
