<svg width="32" height="32" viewBox="0 0 32 32" fill="none" xmlns="http://www.w3.org/2000/svg">
<path d="M23.1712 16.761C23.1593 14.727 24.0808 13.194 25.9418 12.0637C24.901 10.5725 23.3263 9.75238 21.2505 9.59432C19.2852 9.43923 17.1349 10.7395 16.3475 10.7395C15.5154 10.7395 13.6127 9.648 12.1155 9.648C9.02578 9.69572 5.74219 12.1114 5.74219 17.0264C5.74219 18.4788 6.00762 19.979 6.53848 21.5238C7.24829 23.5578 9.80716 28.5413 12.4764 28.4608C13.8721 28.428 14.8593 27.4707 16.6756 27.4707C18.4382 27.4707 19.3508 28.4608 20.9076 28.4608C23.6006 28.4221 25.915 23.8918 26.589 21.8519C22.9773 20.1489 23.1712 16.8653 23.1712 16.761ZM20.0367 7.66472C21.5488 5.86933 21.4116 4.23499 21.3669 3.64746C20.0307 3.725 18.4859 4.55709 17.6061 5.58004C16.6368 6.67755 16.0672 8.03454 16.1894 9.56449C17.6329 9.67484 18.9511 8.93223 20.0367 7.66472Z" fill="white"/>
</svg>
