<svg width="1069" height="284" viewBox="0 0 1069 284" fill="none" xmlns="http://www.w3.org/2000/svg">
<path d="M50.4433 149.802C26.9048 149.802 26.4839 107.48 2.94531 107.48V270.952C2.94531 275.37 6.52704 278.952 10.9453 278.952H1054.18C1058.6 278.952 1062.18 275.409 1062.18 270.99V61.7535C1032.76 61.7535 1053.72 27.452 1030.18 27.452C1006.64 27.452 1003.73 56.0379 980.192 56.0379C956.653 56.0379 952.633 32.3071 929.095 32.3071C905.556 32.3071 900.857 7.14253 880.261 7.14258C859.664 7.14262 850.334 61.7535 826.795 61.7535C803.256 61.7535 803.257 44.6063 779.718 44.6063C756.18 44.6063 732.641 73.1851 709.102 73.1851C685.564 73.1851 685.564 56.038 662.025 56.0379C638.487 56.0378 631.509 71.0264 614.948 84.6165C592.467 103.064 591.62 149.802 568.081 149.802C544.543 149.802 541.633 107.48 518.095 107.48C494.556 107.48 497.255 78.9008 473.717 78.9008C450.178 78.9008 450.178 73.185 426.64 73.185C403.101 73.185 403.101 123.198 379.562 123.198C356.024 123.198 356.024 90.3322 332.485 90.3323C308.947 90.3323 308.363 149.802 284.824 149.802C261.286 149.802 251.712 136.207 228.173 136.207C204.635 136.207 214.792 124.627 191.254 124.627C167.715 124.627 169.512 161.454 145.973 161.454C122.435 161.454 118.414 192.527 94.8758 192.527C71.3372 192.527 73.9819 149.802 50.4433 149.802Z" fill="url(#paint0_linear_1078_6486)"/>
<path d="M1061.39 107.011C1038.02 109.383 1041.27 141.464 1017.91 143.836C994.539 146.208 998.338 183.635 974.97 186.007C951.602 188.38 948.888 161.646 925.52 164.018C902.152 166.39 899.439 139.656 876.071 142.028C852.703 144.4 849.761 115.256 826.393 117.628C803.025 120 807.595 165.185 784.227 167.557C760.859 169.929 755.974 121.808 732.606 124.18C709.239 126.552 712.359 157.296 688.991 159.668C665.623 162.04 660.874 115.256 637.506 117.628C614.138 120 614.681 125.347 591.313 127.719C567.945 130.091 570.659 156.825 547.291 159.197C523.923 161.569 527.179 193.65 503.811 196.022C480.443 198.394 475.718 162.29 451.648 147.298C433.917 136.254 425.566 122.936 402.198 125.309C378.83 127.681 380.459 143.721 357.091 146.093C333.723 148.465 307.641 124.103 284.273 126.475C260.905 128.848 262.533 144.888 239.165 147.26C215.797 149.632 184.877 87.8723 164.43 89.9479C143.983 92.0234 152.232 133.635 128.864 136.007C105.496 138.379 103.901 155.589 80.5328 157.961C57.1648 160.333 59.6937 136.854 36.3257 139.226C12.9577 141.598 35.7296 167.911 6.51967 170.876" stroke="#F6851B"/>
<path d="M2.98033 204.137C26.5181 204.235 24.6401 198.535 48.1779 198.633C71.7156 198.731 68.5081 219.568 92.0458 219.666C115.584 219.764 124.272 219.568 147.81 219.666C171.348 219.764 171.436 198.535 194.974 198.633C218.512 198.731 218.49 204.039 242.028 204.137C265.565 204.235 265.534 211.665 289.072 211.763C312.61 211.861 312.769 173.649 336.307 173.747C359.845 173.845 359.743 198.259 383.281 198.357C406.818 198.455 406.973 161.304 430.511 161.402C454.049 161.5 454.031 165.746 477.569 165.844C501.107 165.943 501.018 187.172 524.556 187.27C548.094 187.368 547.987 212.843 571.525 212.941C595.063 213.039 596.24 184.289 618.778 170.679C635.38 160.653 642.404 149.548 665.942 149.646C689.479 149.745 689.426 162.482 712.964 162.58C736.502 162.678 760.128 141.547 783.666 141.645C807.204 141.743 807.15 154.481 830.688 154.579C854.226 154.677 879.015 103.77 899.611 103.856C920.206 103.942 916.054 137.289 939.592 137.388C963.13 137.486 966.406 150.899 989.944 150.997C1013.48 151.095 1008.66 132.822 1032.2 132.92C1055.74 133.019 1035.6 155.434 1065.02 155.556" stroke="#289AE8"/>
<defs>
<linearGradient id="paint0_linear_1078_6486" x1="532.563" y1="-55.8057" x2="532.562" y2="298.741" gradientUnits="userSpaceOnUse">
<stop stop-color="#F6851B" stop-opacity="0.21"/>
<stop offset="0.723958" stop-color="#F6851B" stop-opacity="0.0710937"/>
<stop offset="0.776042" stop-color="#F6851B" stop-opacity="0.0710937"/>
<stop offset="1" stop-color="#F6851B" stop-opacity="0"/>
</linearGradient>
</defs>
</svg>
