<svg width="32" height="32" viewBox="0 0 32 32" fill="none" xmlns="http://www.w3.org/2000/svg">
<g clip-path="url(#clip0_684_3166)">
<path d="M23.1871 20.7206C27.0525 18.7341 29.9826 17.2204 30.2352 17.1027C31.0432 16.7006 31.8775 15.6361 30.2352 14.8093C29.7049 14.5493 26.85 13.0827 23.1871 11.1914L18.1094 15.9913L23.1871 20.7205V20.7206Z" fill="#FFD900"/>
<path d="M18.1057 15.9922L1.9375 31.2444C2.31701 31.2915 2.74545 31.1973 3.25059 30.9374C4.31111 30.394 15.5536 24.6474 23.1835 20.7226L18.1057 15.9922Z" fill="#F43249"/>
<path d="M18.1074 15.992L23.1852 11.2156C23.1852 11.2156 4.38948 1.61453 3.25227 1.04776C2.82383 0.810246 2.3437 0.739693 1.91406 0.810246L18.1074 15.992Z" fill="#00EE76"/>
<path d="M18.109 15.9923L1.91571 0.810547C1.25851 0.952767 0.703125 1.49624 0.703125 2.6077V29.4474C0.703125 30.4646 1.13288 31.1974 1.94083 31.268L18.109 15.9923Z" fill="#00D3FF"/>
</g>
<defs>
<clipPath id="clip0_684_3166">
<rect width="30.5395" height="30.5395" fill="white" transform="translate(0.671875 0.78418)"/>
</clipPath>
</defs>
</svg>
