<svg width="21" height="17" viewBox="0 0 21 17" fill="none" xmlns="http://www.w3.org/2000/svg">
<path opacity="0.4" d="M19.3311 12.5556L15.9681 9.77304C16.4776 8.84551 16.7833 7.91798 16.7833 6.90614C16.7833 5.05109 15.9681 3.36467 14.3375 2.09987C11.0763 -0.598393 5.87888 -0.598393 2.61773 2.09987C-0.643412 4.79812 -0.643412 9.09847 2.61773 11.7967C4.1464 13.0615 6.28653 13.8204 8.42665 13.8204C9.64958 13.8204 10.8725 13.5675 11.8916 13.1459L15.2547 15.9284C15.7642 16.35 16.5795 16.603 17.2929 16.603C18.0063 16.603 18.7196 16.35 19.3311 15.9284C20.4521 14.9166 20.4521 13.3988 19.3311 12.5556ZM4.04449 10.4476C1.59863 8.42391 1.59863 5.13541 4.04449 3.19603C5.26742 2.18419 6.79608 1.67826 8.42665 1.67826C10.0572 1.67826 11.5859 2.18419 12.8088 3.19603C14.0317 4.20788 14.6432 5.47269 14.6432 6.82182C14.6432 8.17095 14.0317 9.52008 12.8088 10.4476C11.5859 11.3751 10.0572 11.9654 8.42665 11.9654C6.79608 11.9654 5.16551 11.4594 4.04449 10.4476Z" fill="#98A2B2"/>
</svg>
