<svg width="25" height="25" viewBox="0 0 25 25" fill="none" xmlns="http://www.w3.org/2000/svg">
<g opacity="0.5">
<path d="M20.8016 5.6495L14.6016 1.91983C13.4016 1.21422 11.9016 1.21422 10.7016 1.91983L4.40156 5.6495C3.30156 6.35512 2.60156 7.66554 2.60156 8.97596V15.7297C2.60156 17.0401 3.30156 18.3505 4.40156 19.0561L10.6016 22.8866C11.2016 23.2898 11.9016 23.3906 12.6016 23.3906C13.3016 23.3906 14.0016 23.189 14.6016 22.8866L20.8016 19.1569C21.9016 18.4513 22.6016 17.2417 22.6016 15.8305V8.97596C22.6016 7.66554 21.9016 6.35512 20.8016 5.6495ZM12.6016 16.1329C10.6016 16.1329 8.90156 14.4193 8.90156 12.4032C8.90156 10.3872 10.5016 8.67356 12.6016 8.67356C14.7016 8.67356 16.3016 10.2864 16.3016 12.4032C16.3016 14.4193 14.6016 16.1329 12.6016 16.1329Z" fill="#98A2B3"/>
</g>
</svg>
