<svg width="19" height="5" viewBox="0 0 19 5" fill="none" xmlns="http://www.w3.org/2000/svg">
<path d="M4.48399 2.19512C4.48399 3.40745 3.5012 4.39024 2.28887 4.39024C1.07654 4.39024 0.09375 3.40745 0.09375 2.19512C0.09375 0.98279 1.07654 0 2.28887 0C3.5012 0 4.48399 0.98279 4.48399 2.19512Z" fill="current"/>
<path d="M11.2889 2.19512C11.2889 3.40745 10.3061 4.39024 9.09375 4.39024C7.88142 4.39024 6.89863 3.40745 6.89863 2.19512C6.89863 0.98279 7.88142 0 9.09375 0C10.3061 0 11.2889 0.98279 11.2889 2.19512Z" fill="current"/>
<path d="M18.0938 2.19512C18.0938 3.40745 17.111 4.39024 15.8986 4.39024C14.6863 4.39024 13.7035 3.40745 13.7035 2.19512C13.7035 0.98279 14.6863 0 15.8986 0C17.111 0 18.0938 0.98279 18.0938 2.19512Z" fill="current"/>
</svg>
