<svg width="18" height="16" viewBox="0 0 18 16" fill="none" xmlns="http://www.w3.org/2000/svg">
<path d="M17.8982 7.28328C17.8982 7.03973 17.8502 6.79857 17.757 6.57356C17.6638 6.34855 17.5272 6.1441 17.355 5.97189C17.1828 5.79968 16.9783 5.66307 16.7533 5.56987C16.5283 5.47667 16.2872 5.4287 16.0436 5.4287H11.3619C11.3326 5.42863 11.3038 5.42164 11.2777 5.40828C11.2516 5.39493 11.2291 5.37559 11.212 5.35185C11.1948 5.32812 11.1835 5.30066 11.179 5.27172C11.1745 5.24279 11.1769 5.2132 11.1861 5.18537C11.5956 4.14742 11.7286 3.02088 11.5718 1.91611C11.1356 0.361969 10.2113 -0.0868404 9.48803 0.0133072C9.13279 0.0737489 8.81168 0.26141 8.58467 0.541254C8.35765 0.821099 8.24024 1.174 8.25436 1.53407C8.25436 3.57114 6.67499 5.79665 5.2618 6.77216C5.21232 6.8063 5.17189 6.85196 5.14397 6.9052C5.11606 6.95845 5.1015 7.01768 5.10156 7.07779V14.5822C5.10154 14.6683 5.13152 14.7518 5.18634 14.8183C5.24117 14.8847 5.31742 14.9301 5.40201 14.9464C5.66684 14.9976 5.90719 15.0466 6.1342 15.0948C7.1324 15.3326 8.15552 15.4499 9.18165 15.4442H14.0036C15.4553 15.4442 15.6727 14.6282 15.6727 14.146C15.6728 13.8902 15.6139 13.6379 15.5006 13.4086C15.8924 13.2101 16.1901 12.865 16.329 12.4483C16.4679 12.0317 16.4368 11.577 16.2424 11.1831C16.5173 11.0434 16.7482 10.8304 16.9095 10.5677C17.0708 10.3049 17.1563 10.0026 17.1564 9.69424C17.1568 9.41634 17.0872 9.14281 16.9538 8.89899C17.2404 8.73759 17.4788 8.50291 17.6448 8.21899C17.8107 7.93507 17.8982 7.61214 17.8982 7.28328Z" fill="current"/>
<path d="M3.98838 7.09828C3.98838 6.90153 3.91022 6.71284 3.7711 6.57372C3.63198 6.4346 3.44329 6.35645 3.24654 6.35645H0.835584C0.638837 6.35645 0.450149 6.4346 0.311028 6.57372C0.171907 6.71284 0.09375 6.90153 0.09375 7.09828L0.09375 15.2585C0.09375 15.4552 0.171907 15.6439 0.311028 15.783C0.450149 15.9221 0.638837 16.0003 0.835584 16.0003H3.24654C3.44329 16.0003 3.63198 15.9221 3.7711 15.783C3.91022 15.6439 3.98838 15.4552 3.98838 15.2585V7.09828ZM2.87563 13.9602C2.87563 14.0703 2.843 14.1779 2.78186 14.2693C2.72073 14.3608 2.63383 14.4322 2.53217 14.4743C2.4305 14.5164 2.31863 14.5274 2.21071 14.5059C2.10278 14.4845 2.00365 14.4315 1.92584 14.3537C1.84802 14.2758 1.79503 14.1767 1.77357 14.0688C1.7521 13.9609 1.76312 13.849 1.80523 13.7473C1.84734 13.6457 1.91865 13.5588 2.01015 13.4976C2.10164 13.4365 2.20921 13.4039 2.31925 13.4039C2.46681 13.4039 2.60833 13.4625 2.71267 13.5668C2.81701 13.6712 2.87563 13.8127 2.87563 13.9602Z" fill="current"/>
</svg>
