<svg width="18" height="16" viewBox="0 0 18 16" fill="none" xmlns="http://www.w3.org/2000/svg">
<path fill-rule="evenodd" clip-rule="evenodd" d="M11.5425 1.55101C10.3486 -0.517005 7.36364 -0.517002 6.16967 1.55101L0.513969 11.347C-0.679999 13.415 0.812465 16 3.2004 16H14.5118C16.8997 16 18.3922 13.415 17.1982 11.347L11.5425 1.55101ZM9.71979 10.4931L9.84523 4.99636H8.37412L8.49576 10.4931H9.71979ZM8.51477 12.6218C8.67949 12.784 8.87716 12.8651 9.10778 12.8651C9.25983 12.8651 9.39794 12.8283 9.52212 12.7549C9.64883 12.6788 9.7502 12.5775 9.82623 12.4507C9.90479 12.324 9.94407 12.1834 9.94407 12.0288C9.94407 11.8007 9.86044 11.6056 9.69318 11.4434C9.52846 11.2812 9.33332 11.2001 9.10778 11.2001C8.87716 11.2001 8.67949 11.2812 8.51477 11.4434C8.35258 11.6056 8.27148 11.8007 8.27148 12.0288C8.27148 12.2619 8.35258 12.4596 8.51477 12.6218Z" fill="current"/>
</svg>
