<svg width="12" height="17" viewBox="0 0 12 17" fill="none" xmlns="http://www.w3.org/2000/svg">
<path d="M3.82297 8.40932C4.09912 8.40932 4.32297 8.18547 4.32297 7.90932V0.587088C4.32297 0.310946 4.54683 0.0870876 4.82297 0.0870876H6.8484C7.12455 0.0870876 7.3484 0.310946 7.3484 0.587088V7.90932C7.3484 8.18547 7.57226 8.40932 7.8484 8.40932H10.6919C11.0878 8.40932 11.3267 8.84763 11.112 9.18035L6.23851 16.7359C6.04231 17.04 5.59796 17.0414 5.39986 16.7385L0.459043 9.18297C0.241577 8.85042 0.480168 8.40932 0.87751 8.40932H3.82297Z" fill="#CDCDCD"/>
<path d="M3.82297 8.40932C4.09912 8.40932 4.32297 8.18547 4.32297 7.90932V0.587088C4.32297 0.310946 4.54683 0.0870876 4.82297 0.0870876H6.8484C7.12455 0.0870876 7.3484 0.310946 7.3484 0.587088V7.90932C7.3484 8.18547 7.57226 8.40932 7.8484 8.40932H10.6919C11.0878 8.40932 11.3267 8.84763 11.112 9.18035L6.23851 16.7359C6.04231 17.04 5.59796 17.0414 5.39986 16.7385L0.459043 9.18297C0.241577 8.85042 0.480168 8.40932 0.87751 8.40932H3.82297Z" stroke="white"/>
</svg>
