<svg width="11" height="18" viewBox="0 0 11 18" fill="none" xmlns="http://www.w3.org/2000/svg">
<path d="M3.58301 8.91383C3.85915 8.91383 4.08301 9.13769 4.08301 9.41383V16.5992C4.08301 16.8754 4.30686 17.0992 4.58301 17.0992H6.32601C6.60215 17.0992 6.82601 16.8754 6.82601 16.5992V9.41383C6.82601 9.13769 7.04986 8.91383 7.32601 8.91383H9.8102C10.198 8.91383 10.4381 8.49159 10.24 8.15829L5.8682 0.80574C5.67508 0.480934 5.20531 0.479515 5.01022 0.803148L0.578094 8.1557C0.377215 8.48895 0.617204 8.91383 1.00631 8.91383H3.58301Z" fill="#CDCDCD"/>
<path d="M3.58301 8.91383C3.85915 8.91383 4.08301 9.13769 4.08301 9.41383V16.5992C4.08301 16.8754 4.30686 17.0992 4.58301 17.0992H6.32601C6.60215 17.0992 6.82601 16.8754 6.82601 16.5992V9.41383C6.82601 9.13769 7.04986 8.91383 7.32601 8.91383H9.8102C10.198 8.91383 10.4381 8.49159 10.24 8.15829L5.8682 0.80574C5.67508 0.480934 5.20531 0.479515 5.01022 0.803148L0.578094 8.1557C0.377215 8.48895 0.617204 8.91383 1.00631 8.91383H3.58301Z" stroke="white"/>
</svg>
