<svg width="11" height="17" viewBox="0 0 11 17" fill="none" xmlns="http://www.w3.org/2000/svg">
<path d="M3.43848 8.52321C3.71462 8.52321 3.93848 8.74706 3.93848 9.02321V16.2086C3.93848 16.4847 4.16233 16.7086 4.43848 16.7086H6.18148C6.45762 16.7086 6.68148 16.4847 6.68148 16.2086V9.02321C6.68148 8.74706 6.90533 8.52321 7.18148 8.52321H9.66567C10.0534 8.52321 10.2936 8.10096 10.0954 7.76767L5.72367 0.415115C5.53055 0.090309 5.06077 0.0888897 4.86569 0.412523L0.433563 7.76508C0.232683 8.09832 0.472673 8.52321 0.86178 8.52321H3.43848Z" fill="#CDCDCD"/>
<path d="M3.43848 8.52321C3.71462 8.52321 3.93848 8.74706 3.93848 9.02321V16.2086C3.93848 16.4847 4.16233 16.7086 4.43848 16.7086H6.18148C6.45762 16.7086 6.68148 16.4847 6.68148 16.2086V9.02321C6.68148 8.74706 6.90533 8.52321 7.18148 8.52321H9.66567C10.0534 8.52321 10.2936 8.10096 10.0954 7.76767L5.72367 0.415115C5.53055 0.090309 5.06077 0.0888897 4.86569 0.412523L0.433563 7.76508C0.232683 8.09832 0.472673 8.52321 0.86178 8.52321H3.43848Z" stroke="white"/>
</svg>
