<svg width="12" height="18" viewBox="0 0 12 18" fill="none" xmlns="http://www.w3.org/2000/svg">
<path d="M3.67844 9.0187C3.95458 9.0187 4.17844 8.79484 4.17844 8.5187V1.19646C4.17844 0.920321 4.4023 0.696463 4.67844 0.696463H6.70387C6.98002 0.696463 7.20387 0.920321 7.20387 1.19646V8.5187C7.20387 8.79484 7.42773 9.0187 7.70387 9.0187H10.5473C10.9433 9.0187 11.1821 9.457 10.9675 9.78972L6.09398 17.3452C5.89778 17.6494 5.45343 17.6508 5.25533 17.3479L0.314512 9.79235C0.0970454 9.4598 0.335637 9.0187 0.732979 9.0187H3.67844Z" fill="#CDCDCD"/>
<path d="M3.67844 9.0187C3.95458 9.0187 4.17844 8.79484 4.17844 8.5187V1.19646C4.17844 0.920321 4.4023 0.696463 4.67844 0.696463H6.70387C6.98002 0.696463 7.20387 0.920321 7.20387 1.19646V8.5187C7.20387 8.79484 7.42773 9.0187 7.70387 9.0187H10.5473C10.9433 9.0187 11.1821 9.457 10.9675 9.78972L6.09398 17.3452C5.89778 17.6494 5.45343 17.6508 5.25533 17.3479L0.314512 9.79235C0.0970454 9.4598 0.335637 9.0187 0.732979 9.0187H3.67844Z" stroke="white"/>
</svg>
