<svg width="33" height="31" viewBox="0 0 33 31" fill="none" xmlns="http://www.w3.org/2000/svg">
<path fill-rule="evenodd" clip-rule="evenodd" d="M1.69473 0.217619L32.2691 14.1284C32.4575 14.1929 32.622 14.3153 32.741 14.4796C32.86 14.6439 32.928 14.8424 32.936 15.0491C32.9441 15.2559 32.8918 15.4611 32.786 15.638C32.6802 15.8149 32.5259 15.9552 32.3432 16.0405L1.70272 30.5459C1.52577 30.6301 1.35631 30.6519 1.16536 30.6214C0.974415 30.5909 0.900711 30.5646 0.758945 30.4296C0.617182 30.2946 0.554068 30.2078 0.508392 30.013C0.462716 29.8181 0.460986 29.5745 0.460988 29.3881L0.622156 18.3214L19.0659 15.4866L0.508392 14.1284L0.353475 1.50712C0.290639 1.31839 0.282597 1.11393 0.330342 0.918942C0.378087 0.723958 0.479531 0.546987 0.622156 0.409866C0.764782 0.272744 0.942347 0.181472 1.13295 0.147309C1.32355 0.113146 1.51884 0.137588 1.69473 0.217619Z" fill="current"/>
</svg>
