<svg width="24" height="25" viewBox="0 0 24 25" fill="none" xmlns="http://www.w3.org/2000/svg">
<path d="M2.04427 24.2158C1.7238 24.2158 1.41646 24.0894 1.18985 23.8644C0.963244 23.6393 0.835938 23.3341 0.835938 23.0158V1.41582C0.835938 1.09756 0.963244 0.792336 1.18985 0.567292C1.41646 0.342248 1.7238 0.21582 2.04427 0.21582H18.9609C19.2814 0.21582 19.5888 0.342248 19.8154 0.567292C20.042 0.792336 20.1693 1.09756 20.1693 1.41582V5.01582H17.7526V2.61582H3.2526V21.8158H17.7526V19.4158H20.1693V23.0158C20.1693 23.3341 20.042 23.6393 19.8154 23.8644C19.5888 24.0894 19.2814 24.2158 18.9609 24.2158H2.04427ZM17.7526 17.0158V13.4158H9.29427V11.0158H17.7526V7.41582L23.7943 12.2158L17.7526 17.0158Z" fill="#C7CDD6"/>
</svg>
