<svg width="24" height="25" viewBox="0 0 24 25" fill="none" xmlns="http://www.w3.org/2000/svg">
<g clip-path="url(#clip0_1479_14224)">
<path d="M12.3569 1.32227C18.7834 1.32227 23.999 6.53792 23.999 12.9644C23.999 19.3908 18.7834 24.6064 12.3569 24.6064C5.9305 24.6064 0.714844 19.3908 0.714844 12.9644C0.714844 6.53792 5.9305 1.32227 12.3569 1.32227ZM5.39846 16.9413C7.10752 19.4909 9.67343 21.1138 12.5432 21.1138C15.4118 21.1138 17.9789 19.4921 19.6868 16.9413C17.7492 15.1305 15.1952 14.1248 12.5432 14.1286C9.8908 14.1246 7.3363 15.1302 5.39846 16.9413ZM12.3569 11.8001C13.2832 11.8001 14.1716 11.4322 14.8266 10.7772C15.4816 10.1222 15.8496 9.23382 15.8496 8.30752C15.8496 7.38122 15.4816 6.49285 14.8266 5.83786C14.1716 5.18286 13.2832 4.81489 12.3569 4.81489C11.4306 4.81489 10.5423 5.18286 9.88727 5.83786C9.23228 6.49285 8.86431 7.38122 8.86431 8.30752C8.86431 9.23382 9.23228 10.1222 9.88727 10.7772C10.5423 11.4322 11.4306 11.8001 12.3569 11.8001Z" fill="current"/>
</g>
<defs>
<clipPath id="clip0_1479_14224">
<rect width="24" height="24" fill="white" transform="translate(0 0.606445)"/>
</clipPath>
</defs>
</svg>
