<svg width="24" height="24" viewBox="0 0 24 24" fill="current" xmlns="http://www.w3.org/2000/svg">
<path fill-rule="evenodd" clip-rule="evenodd" d="M16.9981 2.99155V1.82439C16.9981 1.18012 17.521 0.657227 18.1653 0.657227C18.8096 0.657227 19.3325 1.18012 19.3325 1.82439V2.99155C21.9119 2.99155 24.0011 5.08194 24.0011 7.6602V19.3318C24.0011 21.9101 21.9119 24.0005 19.3325 24.0005C15.9955 24.0005 10.9989 24.0005 7.66084 24.0005C5.08257 24.0005 2.99219 21.9101 2.99219 19.3318V7.6602C2.99219 5.08194 5.08257 2.99155 7.66084 2.99155V1.82439C7.66084 1.18012 8.18372 0.657227 8.828 0.657227C9.47227 0.657227 9.99516 1.18012 9.99516 1.82439V2.99155H16.9981ZM11.3988 19.8585C11.3988 18.57 11.3988 21.1471 11.3988 19.8585L21.6668 19.3318C22.5615 20.4814 21.3587 18.9359 21.6668 19.3318L11.3988 19.8585ZM15.7061 16.5948L17.3518 14.9935C17.814 14.5441 18.5528 14.5546 19.0021 15.0168C19.4515 15.4779 19.441 16.2178 18.98 16.6672L16.5803 19.0015C16.1508 19.4182 15.4773 19.4439 15.0186 19.061L13.7044 17.9639C13.2095 17.5519 13.143 16.8154 13.5562 16.3205C13.9682 15.8257 14.7047 15.7591 15.1995 16.1723L15.7061 16.5948ZM19.3325 5.32587V6.49304C19.3325 7.13731 18.8096 7.6602 18.1653 7.6602C17.521 7.6602 16.9981 7.13731 16.9981 6.49304V5.32587H9.99516V6.49304C9.99516 7.13731 9.47227 7.6602 8.828 7.6602C8.18372 7.6602 7.66084 7.13731 7.66084 6.49304V5.32587C6.37229 5.32587 5.32651 6.37048 5.32651 7.6602V9.99452H21.6668V7.6602C21.6668 6.37048 20.6222 5.32587 19.3325 5.32587Z" fill="current"/>
</svg>
