<svg width="24" height="24" viewBox="0 0 24 24" fill="current" xmlns="http://www.w3.org/2000/svg">
<path d="M20.3 4H3.8C2.2 4 1 5.2 1 6.8V15C1 16.5 2.2 17.7 3.8 17.7H6C6 17.7 6.0301 17.7 6.1 17.6L6.8 16.7L7.6 15.7L9.8 12.7C10.3 12 11.1 11.6 12 11.6C12.9 11.6 13.7 12 14.3 12.7L16.5 15.7L17.3 16.7L18 17.6L18.1 17.7H20.4C21.9 17.7 23.2 16.5 23.2 15V6.8C23 5.2 21.8 4 20.3 4Z" fill="current"/>
<path d="M15.5032 17.6996L14.7032 16.6996L13.9032 15.6996L12.6032 13.8996C12.5032 13.6996 12.2032 13.5996 11.9032 13.5996C11.6032 13.5996 11.4032 13.6996 11.2032 13.8996L10.0032 15.6996L9.20319 16.6996L8.40319 17.6996L7.60319 18.7996C7.40319 18.9996 7.40319 19.2996 7.50319 19.5996C7.70319 19.7996 8.00319 19.9996 8.30319 19.9996H15.6032C15.9032 19.9996 16.2032 19.7996 16.3032 19.5996C16.4032 19.2996 16.4032 19.0996 16.2032 18.7996L15.5032 17.6996Z" fill="current"/>
</svg>
