<svg width="24" height="25" viewBox="0 0 24 25" fill="none" xmlns="http://www.w3.org/2000/svg">
<g clip-path="url(#clip0_1479_14230)">
<path d="M23.9973 2.76279L24.0008 23.6571C23.9984 23.9617 23.8762 24.2531 23.6607 24.4684C23.4452 24.6836 23.1537 24.8055 22.8491 24.8076H4.27665C3.97141 24.8076 3.67866 24.6864 3.46272 24.4707C3.24678 24.255 3.12531 23.9624 3.125 23.6571V2.76279C3.12743 2.45821 3.24958 2.16682 3.46506 1.95155C3.68055 1.73628 3.97207 1.61443 4.27665 1.6123H22.8445C23.4812 1.6123 23.9973 2.12724 23.9973 2.76279ZM10.0836 14.3697V9.73066C10.0836 9.42308 10.2058 9.12808 10.4233 8.91059C10.6408 8.69309 10.9358 8.5709 11.2434 8.5709C11.5509 8.5709 11.8459 8.69309 12.0634 8.91059C12.2809 9.12808 12.4031 9.42308 12.4031 9.73066V14.3697C12.4031 14.6773 12.5253 14.9723 12.7428 15.1898C12.9603 15.4073 13.2553 15.5295 13.5629 15.5295C13.8705 15.5295 14.1655 15.4073 14.383 15.1898C14.6005 14.9723 14.7227 14.6773 14.7227 14.3697V9.73066C14.7227 8.8079 14.3561 7.92292 13.7036 7.27043C13.0511 6.61793 12.1661 6.25137 11.2434 6.25137C10.3206 6.25137 9.43562 6.61793 8.78312 7.27043C8.13063 7.92292 7.76406 8.8079 7.76406 9.73066V14.3697C7.76406 15.9077 8.37501 17.3826 9.4625 18.4701C10.55 19.5576 12.0249 20.1686 13.5629 20.1686C15.1008 20.1686 16.5758 19.5576 17.6633 18.4701C18.7508 17.3826 19.3617 15.9077 19.3617 14.3697V8.5709H17.0422V14.3697C17.0422 15.2925 16.6756 16.1775 16.0231 16.83C15.3706 17.4825 14.4857 17.849 13.5629 17.849C12.6401 17.849 11.7551 17.4825 11.1027 16.83C10.4502 16.1775 10.0836 15.2925 10.0836 14.3697Z" fill="current"/>
</g>
<defs>
<clipPath id="clip0_1479_14230">
<rect width="24" height="24" fill="white" transform="translate(0 0.807617)"/>
</clipPath>
</defs>
</svg>
