<svg width="1406" height="613" viewBox="0 0 1406 613" fill="none" xmlns="http://www.w3.org/2000/svg">
<g filter="url(#filter0_d_2460_15259)">
<rect x="3.58984" y="2.03516" width="1398.5" height="606.647" rx="8" fill="#D9EBFF"/>
</g>
<mask id="mask0_2460_15259" style="mask-type:alpha" maskUnits="userSpaceOnUse" x="3" y="2" width="1400" height="607">
<rect x="3.58984" y="2.03516" width="1398.5" height="606.647" rx="8" fill="#D9EBFF"/>
</mask>
<g mask="url(#mask0_2460_15259)">
<path d="M758.774 309.636C804.471 336.758 804.471 402.907 758.774 430.029L92.9781 825.181C46.3166 852.874 -12.7486 819.245 -12.7486 764.984L-12.7485 -25.3187C-12.7485 -79.5796 46.3166 -113.209 92.9782 -85.5151L758.774 309.636Z" fill="white"/>
<path d="M391.707 129.831L391.558 182.434L213.734 207.186L213.884 154.582L391.707 129.831Z" fill="#0F2F82"/>
<path d="M262.17 202.795L262.02 255.398L173.449 204.262L173.599 151.658L262.17 202.795Z" fill="#0F2F82"/>
<path d="M360.95 170.626L360.801 223.23L301.355 257.775L301.505 205.172L360.95 170.626" fill="#0F2F82"/>
<path d="M301.385 225.432L301.236 278.035L283.809 267.974L283.958 215.371L301.385 225.432Z" fill="#0F2F82"/>
<path d="M310.037 220.401L309.889 273.005L301.23 278.035L301.38 225.432L310.037 220.401" fill="#0F2F82"/>
<path d="M244.167 238.492L244.019 291.096L222.234 278.518L222.384 225.914L244.167 238.492Z" fill="#0F2F82"/>
<path d="M283.956 215.371L283.806 267.974L244.02 291.096L244.168 238.492L283.956 215.371Z" fill="#0F2F82"/>
<path d="M391.707 129.83L213.884 154.581L279.722 192.594L339.168 158.048L360.953 170.625L301.507 205.171L310.042 220.401L301.385 225.432L283.958 215.371L244.17 238.492L222.386 225.914L262.173 202.793L173.602 151.656L191.151 141.457L368.862 116.639L391.707 129.83Z" fill="#276BFF"/>
<path d="M527.525 240.979L527.376 293.582C527.401 284.427 520.595 275.915 506.963 268.043C473.755 248.871 434.873 252.219 390.328 278.106C364.342 293.207 351.333 307.14 351.297 319.902L351.445 267.3C351.482 254.538 364.491 240.605 390.477 225.503C435.021 199.616 473.903 196.267 507.112 215.441C520.746 223.311 527.551 231.825 527.525 240.979Z" fill="#0F2F82"/>
<path d="M557.32 244.707L557.171 297.311C557.125 313.59 541.718 330.672 510.95 348.552C454.554 381.325 402.516 383.954 354.858 356.438C332.378 343.46 321.16 329.971 321.199 315.972L321.349 263.369C321.309 277.369 332.528 290.857 355.007 303.835C402.666 331.351 454.702 328.723 511.098 295.95C541.868 278.068 557.274 260.987 557.32 244.707Z" fill="#0F2F82"/>
<path d="M372.556 293.636C404.898 312.308 443.665 308.526 488.824 282.282C533.368 256.396 539.456 234.113 507.113 215.44C473.904 196.267 435.022 199.615 390.478 225.503C345.319 251.746 339.348 274.463 372.556 293.636V293.636ZM524.673 205.235C572.332 232.75 567.811 262.99 511.097 295.949C454.701 328.722 402.664 331.35 355.006 303.834C306.482 275.82 310.427 245.424 366.823 212.651C423.536 179.694 476.148 177.22 524.673 205.235" fill="#4A56CC"/>
<path d="M498.277 470.715L453.576 496.694C452.787 497.15 451.5 497.156 450.706 496.699L405.713 470.72C405.316 470.493 405.12 470.191 405.121 469.889L405.109 474.015C405.108 474.317 405.305 474.619 405.702 474.848L450.696 500.825C451.488 501.282 452.777 501.278 453.563 500.82L498.264 474.843C498.656 474.616 498.851 474.319 498.851 474.02L498.864 469.895C498.863 470.192 498.668 470.489 498.277 470.715" fill="#C93737"/>
<path d="M498.272 469.064C499.062 469.521 499.067 470.263 498.281 470.72L453.58 496.698C452.791 497.155 451.505 497.159 450.711 496.703L405.717 470.725C404.926 470.268 404.93 469.521 405.716 469.064L450.418 443.086C451.205 442.631 452.485 442.631 453.276 443.086L498.272 469.064" fill="#D93B3B"/>
<path d="M480.999 468.316L480.993 468.3C481.014 466.469 480.489 464.646 479.477 462.895L461.934 400.435L442.049 400.462L424.396 463.251C423.481 464.892 422.997 466.593 422.978 468.297L422.973 468.316H422.975C422.936 472.617 425.741 476.913 431.405 480.183C442.7 486.705 461.071 486.671 472.436 480.109C478.091 476.845 480.94 472.581 480.992 468.316H480.999" fill="#E83F3F"/>
<path d="M444.829 405.595C440.9 403.327 440.919 399.635 444.873 397.353C448.829 395.069 455.22 395.058 459.15 397.326C463.08 399.596 463.06 403.286 459.105 405.569C455.151 407.852 448.759 407.864 444.829 405.595" fill="#C93737"/>
<path d="M477.646 456.386L474.416 444.886C473.287 446.044 471.869 447.135 470.158 448.122C460.058 453.954 443.732 453.983 433.694 448.188C432.021 447.222 430.631 446.155 429.52 445.021L426.305 456.453C426.81 459.801 429.269 463.061 433.694 465.618C443.732 471.413 460.058 471.384 470.158 465.553C474.601 462.987 477.094 459.726 477.646 456.386" fill="#F2F2F2"/>
<path d="M466.694 417.379C457.866 420.963 446.08 421.001 437.264 417.482L432.973 432.747C433.216 432.899 433.439 433.06 433.696 433.211C443.734 439.006 460.06 438.975 470.161 433.144C470.449 432.977 470.702 432.797 470.975 432.625L466.694 417.379Z" fill="#F2F2F2"/>
<path d="M372.556 293.636C404.898 312.308 443.665 308.526 488.824 282.282C533.368 256.396 539.456 234.113 507.113 215.44C473.904 196.267 435.022 199.615 390.478 225.503C345.319 251.746 339.348 274.463 372.556 293.636V293.636ZM524.673 205.235C572.332 232.75 567.811 262.99 511.097 295.949C454.701 328.722 402.664 331.35 355.006 303.834C306.482 275.82 310.427 245.424 366.823 212.651C423.536 179.694 476.148 177.22 524.673 205.235" fill="#276BFF"/>
<path d="M456.491 203.34L456.113 297.77C458.338 296.976 460.585 296.104 462.844 295.182L463.212 203.223C460.989 203.186 458.75 203.222 456.491 203.34Z" fill="#E2E2E2"/>
<path d="M463.205 203.222L463.273 186.176C461.041 186.04 458.8 185.978 456.553 185.957L456.484 203.338C458.744 203.22 460.983 203.185 463.205 203.222" fill="#E2E2E2"/>
<path d="M415.156 305.275C428.052 305.421 441.704 302.919 456.11 297.768L456.487 203.339C443.478 204.019 429.823 207.273 415.524 213.087L415.156 305.275Z" fill="#F2F2F2"/>
<path d="M456.483 203.34L456.552 185.958C443.172 185.822 429.523 187.688 415.605 191.557L415.52 213.088C429.818 207.274 443.474 204.02 456.483 203.34Z" fill="#F2F2F2"/>
<path d="M335.32 143.648L341.733 139.921C341.726 142.848 343.784 146.417 346.325 147.882L339.912 151.609C337.372 150.143 335.313 146.575 335.32 143.648Z" fill="#FDE169"/>
<path d="M335.341 136.694L341.754 132.967L341.733 139.919L335.32 143.646L335.341 136.694Z" fill="#FDE169"/>
<path d="M335.505 78.95L341.918 75.2228L341.835 104.462L335.422 108.189L335.505 78.95Z" fill="#FDE169"/>
<path d="M374.883 171.8L381.296 168.072L406.742 182.763L400.329 186.49L374.883 171.8Z" fill="#FDE169"/>
<path d="M425.141 200.814L431.555 197.088L456.999 211.779L450.587 215.506L425.141 200.814Z" fill="#FDE169"/>
<path d="M475.391 229.828L481.804 226.1L507.249 240.792L500.837 244.52L475.391 229.828Z" fill="#FDE169"/>
<path d="M522.172 145.517L425.137 200.814L450.583 215.505L536.919 166.305L536.839 194.809L475.389 229.827L500.835 244.519L536.756 224.049L536.655 259.887C536.646 262.815 534.573 263.996 532.025 262.526L339.912 151.609C337.372 150.143 335.313 146.575 335.32 143.648L335.605 43.1039C335.614 40.1847 337.687 39.004 340.227 40.4694L371.424 58.4813L335.504 78.9516L335.421 108.191L396.869 73.1731L421.675 87.4948L335.341 136.695L335.32 143.648C335.313 146.575 337.372 150.143 339.912 151.609L350.079 157.48L447.114 102.182L471.921 116.503L374.885 171.801L400.331 186.492L497.366 131.195L522.172 145.517" fill="#FDE169"/>
<path d="M339.914 151.61L346.327 147.883L356.494 153.753L350.081 157.48L339.914 151.61Z" fill="#FDE169"/>
<path d="M396.87 73.1715L335.422 108.189L335.505 78.95L371.425 58.4797L396.87 73.1715" fill="#58595B"/>
<path d="M447.114 102.182L350.079 157.48L339.912 151.61C337.372 150.143 335.313 146.576 335.32 143.649L335.341 136.696L421.675 87.4956L447.114 102.182" fill="#58595B"/>
<path d="M497.364 131.193L400.329 186.49L374.883 171.8L471.919 116.502L497.364 131.193Z" fill="#58595B"/>
<path d="M536.84 194.81L536.757 224.049L500.837 244.52L475.391 229.828L536.84 194.81" fill="#58595B"/>
<path d="M532.343 151.388C534.89 152.857 536.951 156.426 536.942 159.344L536.923 166.305L450.587 215.506L425.141 200.814L522.176 145.517L532.343 151.388" fill="#58595B"/>
<path d="M538.747 147.66L528.58 141.789L503.774 127.467L478.328 112.777L453.521 98.454L428.085 83.7672L403.277 69.4455L377.831 54.7549L346.635 36.743C345.356 36.0052 344.197 35.9376 343.358 36.4252L336.945 40.1511C337.784 39.6648 338.943 39.7312 340.221 40.469L371.418 58.4809L396.864 73.1727L421.67 87.4944L447.109 102.181L471.915 116.503L497.361 131.195L522.167 145.516L532.334 151.387C534.882 152.856 536.942 156.425 536.933 159.343L536.914 166.304L536.834 194.809L536.751 224.048L536.649 259.887C536.645 261.341 536.13 262.364 535.302 262.846L541.715 259.12C542.544 258.639 543.058 257.615 543.061 256.16L543.164 220.321L543.246 191.083L543.327 162.579L543.347 155.617C543.356 152.698 541.295 149.13 538.747 147.66" fill="#ECD262"/>
<path d="M511.43 235.166L357.749 146.439C356.795 145.888 356.207 144.869 356.207 143.767V70.5027C356.207 68.1285 358.778 66.6439 360.834 67.8323L514.515 156.559C515.47 157.109 516.059 158.128 516.059 159.231V232.495C516.059 234.869 513.486 236.353 511.43 235.166" fill="#E83F3F"/>
<path d="M376.113 108.521V91.0823L379.316 92.9318V110.369C379.316 115.825 381.681 119.918 386.412 122.65C391.142 125.382 393.509 124.02 393.509 118.564V101.127L396.71 102.974V120.412C396.71 127.854 393.278 129.593 386.412 125.629C379.547 121.665 376.113 115.963 376.113 108.521" fill="white"/>
<path d="M402.418 134.675V106.273L405.621 108.122L420.764 139.745V116.866L423.793 118.615V147.016L420.592 145.167L405.447 113.344V136.424L402.418 134.675Z" fill="white"/>
<path d="M438.684 152.628C444.742 156.126 447.771 153.875 447.771 145.878C447.771 138.914 444.742 133.682 438.684 130.186L432.886 126.838V149.28L438.684 152.628ZM429.684 150.411V122.009L438.684 127.205C446.877 131.936 450.973 138.776 450.973 147.727C450.973 157.711 446.877 160.338 438.684 155.608L429.684 150.411Z" fill="white"/>
<path d="M471.826 146.346V149.325L458.845 141.831V151.365L471.221 158.509V161.488L458.845 154.344V164.275L472.088 171.919V174.898L455.645 165.404V137.003L471.826 146.346" fill="white"/>
<path d="M476.934 177.693V149.292L487.492 155.388C492.2 158.106 494.554 161.736 494.554 166.278C494.554 169.972 492.251 171.377 487.648 170.492L496.145 188.785L491.923 186.347L484.047 169.03V166.627C488.779 168.497 491.144 167.777 491.144 164.468C491.144 161.846 489.828 159.775 487.197 158.256L480.135 154.18V179.542L476.934 177.693Z" fill="white"/>
<path d="M382.386 145.697C381.422 145.498 380.378 145.076 379.257 144.428C375.345 142.17 373.391 138.812 373.391 134.354C373.391 130.135 375.345 129.155 379.257 131.413C380.378 132.06 381.422 132.841 382.386 133.757V135.195C381.422 134.218 380.43 133.437 379.413 132.85C376.362 131.088 374.838 131.868 374.838 135.19C374.838 138.75 376.362 141.411 379.413 143.172C380.43 143.76 381.422 144.122 382.386 144.261V145.697Z" fill="white"/>
<path d="M389.999 149.284C392.669 150.826 394.005 149.865 394.005 146.399C394.005 142.982 392.669 140.503 389.999 138.961C387.273 137.386 385.908 138.308 385.908 141.725C385.908 145.19 387.273 147.71 389.999 149.284V149.284ZM384.383 140.898C384.383 136.547 386.255 135.452 389.999 137.614C393.687 139.744 395.53 142.983 395.53 147.333C395.53 151.66 393.687 152.76 389.999 150.63C386.255 148.468 384.383 145.225 384.383 140.898Z" fill="white"/>
<path d="M397.797 155.043V142.207L399.244 143.043L406.089 157.336V146.995L407.458 147.785V160.621L406.011 159.786L399.165 145.403V155.834L397.797 155.043Z" fill="white"/>
<path d="M409.962 161.616V160.09C411.135 161.246 412.403 162.218 413.763 163.004C415.688 164.114 416.651 163.862 416.651 162.247C416.651 160.87 415.941 159.772 414.523 158.954L413.083 158.122C410.741 156.77 409.57 154.927 409.57 152.593C409.57 150.14 411.07 149.779 414.068 151.509C415.373 152.264 416.584 153.142 417.706 154.149V155.675C416.584 154.549 415.373 153.609 414.068 152.856C412.035 151.683 411.018 151.873 411.018 153.429C411.018 154.805 411.706 155.892 413.083 156.686L414.523 157.516C416.906 158.892 418.098 160.748 418.098 163.082C418.098 165.595 416.653 166.018 413.763 164.349C412.403 163.564 411.135 162.653 409.962 161.616" fill="white"/>
<path d="M427.761 159.505V160.851L424.24 158.819V170.309L422.793 169.474V157.983L419.273 155.951V154.605L427.761 159.505Z" fill="white"/>
<path d="M429.484 173.333V160.496L434.256 163.252C436.384 164.48 437.447 166.121 437.447 168.172C437.447 169.843 436.406 170.478 434.326 170.078L438.167 178.346L436.257 177.244L432.698 169.418V168.331C434.838 169.177 435.906 168.852 435.906 167.356C435.906 166.171 435.311 165.235 434.122 164.549L430.931 162.705V174.168L429.484 173.333" fill="white"/>
<path d="M439.613 174.226V166.344L441.061 167.18V175.062C441.061 177.527 442.129 179.378 444.268 180.612C446.405 181.847 447.475 181.23 447.475 178.765V170.883L448.922 171.719V179.601C448.922 182.965 447.37 183.75 444.268 181.959C441.164 180.167 439.613 177.59 439.613 174.226Z" fill="white"/>
<path d="M459.946 190.477C458.982 190.279 457.938 189.856 456.817 189.208C452.905 186.95 450.949 183.593 450.949 179.134C450.949 174.915 452.905 173.934 456.817 176.193C457.938 176.84 458.982 177.621 459.946 178.538V179.974C458.982 178.997 457.991 178.216 456.974 177.629C453.922 175.868 452.398 176.648 452.398 179.969C452.398 183.53 453.922 186.192 456.974 187.953C457.991 188.54 458.982 188.903 459.946 189.041V190.477" fill="white"/>
<path d="M469.885 183.827V185.174L466.364 183.14V194.631L464.918 193.796V182.306L461.398 180.272V178.927L469.885 183.827Z" fill="white"/>
<path d="M473.289 185.79V198.627L471.84 197.791V184.954L473.289 185.79Z" fill="white"/>
<path d="M481.409 202.058C484.08 203.598 485.415 202.637 485.415 199.173C485.415 195.754 484.08 193.276 481.409 191.734C478.683 190.16 477.317 191.08 477.317 194.497C477.317 197.963 478.683 200.482 481.409 202.058V202.058ZM475.793 193.671C475.793 189.32 477.666 188.226 481.409 190.387C485.097 192.516 486.939 195.756 486.939 200.107C486.939 204.433 485.097 205.533 481.409 203.404C477.666 201.242 475.793 197.997 475.793 193.671Z" fill="white"/>
<path d="M489.211 207.816V194.979L490.656 195.815L497.503 210.108V199.767L498.871 200.559V213.395L497.424 212.558L490.579 198.177V208.607L489.211 207.816" fill="white"/>
<path d="M298.992 363.851L299.006 368.903L310.815 375.766L310.801 370.713L298.992 363.851Z" fill="#E8E8E8"/>
<path d="M313.401 379.385L313.387 374.331C313.383 373.02 312.521 371.715 310.801 370.714L310.815 375.766C312.535 376.767 313.397 378.074 313.401 379.385" fill="#E8E8E8"/>
<path d="M330.02 380.016L330.034 385.068L333.637 377.37L333.623 372.318L330.02 380.016Z" fill="#E8E8E8"/>
<path d="M300.863 391.231L300.879 396.283L314.182 394.222L314.168 389.17L300.863 391.231" fill="#E8E8E8"/>
<path d="M282.07 380.31L282.084 385.362L300.877 396.283L300.862 391.231L282.07 380.31" fill="#E8E8E8"/>
<path d="M314.172 389.171L314.186 394.223L362.065 422.047L362.051 416.995L314.172 389.171Z" fill="#E8E8E8"/>
<path d="M378.684 422.676L378.698 427.729C378.694 426.402 379.571 425.072 381.326 424.06C384.817 422.043 390.447 422.043 393.912 424.056L393.898 419.004C390.433 416.991 384.803 416.991 381.311 419.008C379.555 420.02 378.68 421.35 378.684 422.676Z" fill="#E8E8E8"/>
<path d="M405.703 425.866L405.717 430.918L410.009 421.751L409.995 416.698L405.703 425.866Z" fill="#E8E8E8"/>
<path d="M393.891 419.002L393.905 424.055L405.714 430.918L405.7 425.866L393.891 419.002Z" fill="#E8E8E8"/>
<path d="M358.445 424.694L358.459 429.746L377.251 440.666L377.237 435.614L358.445 424.694Z" fill="#E8E8E8"/>
<path d="M377.238 435.614L377.252 440.666L393.092 438.211L393.078 433.159L377.238 435.614Z" fill="#E8E8E8"/>
<path d="M286.363 371.144L282.07 380.31L300.862 391.231L314.166 389.17L362.046 416.994L358.442 424.693L377.234 435.613L393.074 433.159L381.265 426.295C377.801 424.282 377.819 421.021 381.306 419.008C384.798 416.991 390.429 416.991 393.893 419.004L405.703 425.868L409.994 416.7L391.201 405.779L377.898 407.842L330.019 380.017L333.622 372.318L314.83 361.397L298.991 363.853L310.799 370.715C314.263 372.729 314.246 375.991 310.753 378.006C307.266 380.019 301.636 380.019 298.171 378.006L286.363 371.144" fill="#F4F4F4"/>
<path d="M110.753 261.512L110.717 274.023L110.695 269.481L110.73 256.968L110.753 261.512" fill="#E2E2E2"/>
<path d="M110.776 266.05L110.74 278.562L110.715 274.021L110.751 261.509L110.776 266.05" fill="#E2E2E2"/>
<path d="M186.147 248.838L186.112 261.35C186.111 261.577 185.987 261.804 185.734 261.994L185.77 249.481C186.023 249.291 186.147 249.064 186.147 248.838Z" fill="#E8E8E8"/>
<path d="M192.065 266.05L192.029 278.562C192.032 279.098 191.349 279.553 190.43 279.621L190.465 267.108C191.383 267.04 192.067 266.586 192.065 266.05Z" fill="#E8E8E8"/>
<path d="M186.292 274.197L186.256 286.708C186.255 286.98 186.075 287.251 185.723 287.455L185.758 274.943C186.111 274.738 186.292 274.467 186.292 274.197Z" fill="#E8E8E8"/>
<path d="M116.469 261.336L116.504 248.824C116.504 249.054 116.632 249.286 116.894 249.482L116.858 261.994C116.598 261.799 116.469 261.567 116.469 261.336Z" fill="#E8E8E8"/>
<path d="M185.77 249.48L185.734 261.993L178.383 267.527L178.419 255.016L185.77 249.48Z" fill="#E8E8E8"/>
<path d="M124.301 255.018L124.265 267.531L116.859 261.995L116.895 249.484L124.301 255.018Z" fill="#E8E8E8"/>
<path d="M168.818 261.561L168.782 274.072C168.79 271.473 167.074 268.869 163.64 266.887C156.817 262.948 145.784 262.948 139.005 266.887C135.638 268.844 133.953 271.404 133.945 273.97L133.981 261.458C133.989 258.893 135.674 256.332 139.041 254.375C145.82 250.435 156.852 250.435 163.676 254.375C167.11 256.358 168.825 258.96 168.818 261.561Z" fill="#E8E8E8"/>
<path d="M112.389 267.108L112.353 279.621C111.938 279.589 111.568 279.478 111.287 279.316C110.952 279.123 110.743 278.855 110.742 278.563L110.778 266.05C110.779 266.344 110.986 266.61 111.323 266.804C111.603 266.966 111.973 267.076 112.389 267.108Z" fill="#E8E8E8"/>
<path d="M190.465 267.107L190.429 279.619L178.461 280.512L178.497 267.999L190.465 267.107Z" fill="#E8E8E8"/>
<path d="M124.376 267.999L124.34 280.512L112.355 279.619L112.391 267.107L124.376 267.999Z" fill="#E8E8E8"/>
<path d="M116.613 286.698L116.649 274.186C116.648 274.463 116.832 274.736 117.192 274.944L117.156 287.457C116.796 287.249 116.613 286.973 116.613 286.698" fill="#E8E8E8"/>
<path d="M185.758 274.94L185.722 287.452L180.191 290.666L180.227 278.154L185.758 274.94Z" fill="#E8E8E8"/>
<path d="M122.751 278.154L122.716 290.666L117.152 287.454L117.188 274.941L122.751 278.154Z" fill="#E8E8E8"/>
<path d="M180.231 278.156L180.195 290.667L174.668 293.879L174.704 281.367L180.231 278.156Z" fill="#E8E8E8"/>
<path d="M172.277 281.454L172.241 293.967L162.66 289.695L162.696 277.182L172.277 281.454Z" fill="#E8E8E8"/>
<path d="M128.309 281.367L128.274 293.879L122.711 290.667L122.745 278.156L128.309 281.367Z" fill="#E8E8E8"/>
<path d="M140.275 277.184L140.24 289.695L130.707 293.973L130.743 281.46L140.275 277.184Z" fill="#E8E8E8"/>
<path d="M174.703 281.368L174.667 293.879C174.015 294.258 172.98 294.297 172.242 293.969L172.278 281.456C173.016 281.785 174.051 281.747 174.703 281.368" fill="#E8E8E8"/>
<path d="M130.742 281.458L130.706 293.971C129.976 294.296 128.935 294.258 128.277 293.879L128.313 281.367C128.969 281.748 130.012 281.785 130.742 281.458" fill="#E8E8E8"/>
<path d="M162.696 277.184L162.66 289.697L161.156 296.635L161.192 284.122L162.696 277.184Z" fill="#E8E8E8"/>
<path d="M141.853 284.122L141.819 296.635L140.238 289.695L140.274 277.183L141.853 284.122" fill="#E8E8E8"/>
<path d="M161.191 284.124L161.155 296.636C161.04 297.169 160.261 297.563 159.336 297.564L159.372 285.051C160.296 285.051 161.076 284.656 161.191 284.124Z" fill="#E8E8E8"/>
<path d="M159.376 285.05L159.34 297.563L151.496 297.564L151.532 285.051L159.376 285.05" fill="#E8E8E8"/>
<path d="M151.524 285.051L151.488 297.564H143.648L143.683 285.051H151.524Z" fill="#E8E8E8"/>
<path d="M143.686 285.051L143.652 297.564C143.148 297.564 142.684 297.446 142.349 297.252C142.068 297.09 141.875 296.875 141.82 296.635L141.855 284.122C141.911 284.362 142.104 284.577 142.385 284.739C142.72 284.934 143.182 285.051 143.686 285.051Z" fill="#E8E8E8"/>
<path d="M139.121 268.643C145.945 272.582 156.973 272.585 163.754 268.645C170.533 264.704 170.497 258.314 163.673 254.375C156.85 250.435 145.817 250.435 139.038 254.375C132.258 258.316 132.297 264.703 139.121 268.643ZM185.903 273.537C186.472 273.964 186.409 274.564 185.758 274.943L180.228 278.157L174.701 281.368C174.048 281.747 173.013 281.786 172.275 281.456L162.694 277.184L161.191 284.122C161.076 284.654 160.296 285.05 159.372 285.05L151.528 285.051H143.687C143.183 285.051 142.721 284.933 142.385 284.738C142.104 284.576 141.911 284.361 141.855 284.122L140.276 277.183L130.744 281.459C130.014 281.786 128.971 281.749 128.315 281.368L122.751 278.157L117.188 274.944C116.532 274.566 116.463 273.962 117.027 273.54L124.374 268.001L112.39 267.109C111.974 267.077 111.604 266.967 111.324 266.805C110.987 266.611 110.78 266.345 110.779 266.051L110.753 261.511L110.73 256.966C110.728 256.432 111.41 255.978 112.327 255.911L124.298 255.016L116.892 249.481C116.323 249.055 116.385 248.455 117.037 248.076L122.564 244.865L128.094 241.649C128.746 241.271 129.781 241.233 130.519 241.561L140.1 245.833L141.601 238.898C141.716 238.366 142.497 237.968 143.423 237.968H151.263L159.108 237.967C159.611 237.967 160.073 238.085 160.407 238.278C160.689 238.44 160.881 238.656 160.935 238.898L162.518 245.835L172.055 241.561C172.782 241.233 173.821 241.273 174.477 241.652L180.04 244.863L185.604 248.076C186.26 248.455 186.332 249.056 185.771 249.48L178.42 255.016L190.401 255.91C190.82 255.942 191.192 256.053 191.473 256.215C191.809 256.407 192.014 256.674 192.017 256.966L192.039 261.511L192.064 266.051C192.067 266.587 191.382 267.041 190.465 267.109L178.497 268.001L185.903 273.537" fill="#F4F4F4"/>
<path d="M255.413 179.779L226.21 104.362C225.341 102.122 223.818 100.374 222.29 99.4924C220.764 98.6103 219.236 98.5976 218.356 99.8281L188.822 141.333C187.064 143.793 189.236 149.397 192.723 151.412L251.469 185.328C254.957 187.342 257.151 184.258 255.413 179.779" fill="#E83F3F"/>
<path d="M262.924 175.419L233.721 99.9999C232.852 97.761 231.328 96.0123 229.802 95.1315C228.634 94.4563 227.463 94.2904 226.585 94.8009L219.078 99.1625C219.958 98.6519 221.127 98.8179 222.295 99.4931C223.823 100.375 225.345 102.123 226.215 104.363L255.417 179.78C256.511 182.597 256.048 184.863 254.686 185.654L262.193 181.293C263.554 180.501 264.018 178.236 262.924 175.419" fill="#C93737"/>
<path d="M219.621 159.484L219.635 154.701L224.501 157.51L224.487 162.293L219.621 159.484Z" fill="white"/>
<path d="M219.73 122.527L224.596 125.335L224.518 152.727L219.652 149.918L219.73 122.527Z" fill="white"/>
<path d="M705.573 311.042L705.424 363.645L527.602 388.396L527.75 335.793L705.573 311.042Z" fill="#0F2F82"/>
<path d="M576.037 384.004L575.887 436.607L487.316 385.469L487.466 332.867L576.037 384.004Z" fill="#0F2F82"/>
<path d="M674.813 351.838L674.665 404.442L615.219 438.986L615.368 386.383L674.813 351.838Z" fill="#0F2F82"/>
<path d="M615.25 406.643L615.1 459.246L597.672 449.184L597.821 396.58L615.25 406.643Z" fill="#0F2F82"/>
<path d="M623.908 401.612L623.758 454.216L615.102 459.246L615.251 406.643L623.908 401.612Z" fill="#0F2F82"/>
<path d="M558.032 419.705L557.883 472.309L536.098 459.731L536.247 407.127L558.032 419.705Z" fill="#0F2F82"/>
<path d="M597.823 396.582L597.673 449.186L557.887 472.309L558.036 419.705L597.823 396.582Z" fill="#0F2F82"/>
<path d="M705.571 311.041L527.747 335.792L593.586 373.805L653.031 339.259L674.816 351.837L615.371 386.382L623.906 401.612L615.25 406.643L597.821 396.58L558.034 419.703L536.249 407.125L576.036 384.004L487.465 332.867L505.015 322.668L682.725 297.851L705.571 311.041Z" fill="#276BFF"/>
<path d="M256.804 360.839C237.738 371.847 206.728 371.791 187.543 360.715C168.357 349.637 168.26 331.735 187.326 320.727C206.392 309.719 237.401 309.775 256.587 320.852C275.774 331.929 275.871 349.831 256.804 360.839" fill="#ECD262"/>
<path d="M271.04 341.002H173.09V329.354H271.04V341.002Z" fill="#ECD262"/>
<path d="M256.804 348.728C237.738 359.736 206.728 359.68 187.543 348.603C168.357 337.527 168.26 319.622 187.326 308.616C206.392 297.608 237.401 297.664 256.587 308.741C275.774 319.818 275.871 337.721 256.804 348.728Z" fill="#FDE169"/>
<path d="M220.237 317.822V324.67L217.18 324.665L217.181 322.12L217.184 320.362L217.185 317.818L220.237 317.822" fill="white"/>
<path d="M223.786 336.807L221.088 338.355L219.931 337.688L221.281 336.913L218.582 335.357L217.233 336.129L212.37 333.322L213.718 332.548L211.02 330.99L209.671 331.764L205.234 329.203L207.934 327.655L223.786 336.807Z" fill="white"/>
<path d="M224.661 320.374L224.662 322.133L220.24 322.124L220.238 320.366L224.661 320.374Z" fill="white"/>
<path d="M229.008 329.732L233.429 329.741V331.5L229.008 331.491V329.732Z" fill="white"/>
<path d="M236.485 327.203L236.487 329.748L236.485 331.507V334.051L233.431 334.046L233.43 331.5V329.742V327.196L236.485 327.203Z" fill="white"/>
<path d="M212.766 320.357L217.187 320.363L217.186 322.121L212.762 322.113L212.766 320.357Z" fill="white"/>
<path d="M203.25 339.462C213.624 345.452 230.502 345.483 240.876 339.533C251.249 333.584 251.249 323.87 240.876 317.881C230.502 311.892 213.625 311.86 203.251 317.81C192.878 323.762 192.878 333.474 203.25 339.462V339.462ZM243.579 316.33C255.441 323.18 255.441 334.29 243.578 341.095C231.716 347.898 212.415 347.858 200.553 341.01C188.691 334.162 188.691 323.057 200.553 316.254C212.416 309.449 231.717 309.482 243.579 316.33" fill="white"/>
<path d="M221.28 336.913L219.93 337.688L217.764 338.93C214.936 340.552 210.334 340.543 207.504 338.91C204.676 337.277 204.676 334.628 207.504 333.007L209.67 331.764L211.02 330.99L213.717 332.547L212.369 333.322L210.203 334.563C208.862 335.333 208.862 336.589 210.203 337.363C211.543 338.136 213.726 338.141 215.067 337.372L217.232 336.129L218.581 335.357L221.28 336.913" fill="white"/>
<path d="M240.909 329.753V331.512L236.484 331.504L236.486 329.745L240.909 329.753" fill="white"/>
<path d="M626.191 289.05C627.632 289.883 629.038 290.526 630.399 290.99C628.83 291.903 627.262 292.813 625.693 293.725C624.332 293.261 622.924 292.617 621.484 291.786C622.896 290.965 624.779 289.871 626.191 289.05Z" fill="#E83F3F"/>
<path d="M605.351 252.962C605.313 266.206 614.661 282.398 626.188 289.052L621.481 291.787C609.955 285.132 600.608 268.941 600.645 255.696C600.664 249.117 602.996 244.482 606.75 242.299L611.456 239.565C607.702 241.747 605.369 246.381 605.351 252.962Z" fill="#E83F3F"/>
<path d="M612.203 277.171L616.909 274.436C619.518 278.126 622.734 281.283 626.208 283.289L621.502 286.023C618.029 284.018 614.813 280.86 612.203 277.171" fill="white"/>
<path d="M605.672 258.593L610.377 255.858C610.367 259.857 611.481 264.198 613.374 268.309L608.669 271.045C606.775 266.934 605.66 262.592 605.672 258.593" fill="white"/>
<path d="M637.505 284.386L632.8 287.12C629.909 288.8 625.91 288.568 621.504 286.024L626.21 283.29C630.618 285.834 634.617 286.065 637.505 284.386Z" fill="white"/>
<path d="M610.311 248.413L615.015 245.679C612.164 247.337 610.391 250.859 610.377 255.858L605.672 258.594C605.686 253.593 607.456 250.071 610.311 248.413Z" fill="white"/>
<path d="M630.398 290.989C634.513 292.394 638.197 292.155 641.056 290.494L636.351 293.229C633.492 294.89 629.808 295.13 625.691 293.723C627.26 292.812 628.829 291.901 630.398 290.989" fill="#E83F3F"/>
<path d="M610.305 248.413L615.01 245.679C617.901 243.999 621.901 244.231 626.309 246.778L621.602 249.512C617.194 246.966 613.193 246.733 610.305 248.413Z" fill="#E83F3F"/>
<path d="M606.754 242.299L611.46 239.563C615.263 237.354 620.528 237.659 626.327 241.008L621.622 243.742C615.822 240.394 610.558 240.088 606.754 242.299" fill="white"/>
<path d="M642.143 274.201C642.129 279.203 640.357 282.728 637.502 284.387L632.797 287.121C635.651 285.463 637.423 281.939 637.438 276.936C637.448 272.944 636.334 268.596 634.441 264.491L639.146 261.757C641.041 265.862 642.155 270.208 642.143 274.201Z" fill="#E83F3F"/>
<path d="M612.203 277.172L616.909 274.436L639.148 261.756L634.443 264.49L612.203 277.172" fill="#E83F3F"/>
<path d="M608.668 271.045L613.373 268.309L635.619 255.632L630.913 258.367L608.668 271.045" fill="white"/>
<path d="M626.316 246.779C629.789 248.784 633.005 251.935 635.621 255.634L630.915 258.369C628.298 254.67 625.084 251.518 621.609 249.513C623.021 248.692 624.904 247.599 626.316 246.779Z" fill="#E83F3F"/>
<path d="M641.057 290.495L636.353 293.23C640.108 291.048 642.44 286.413 642.458 279.834C642.495 266.59 633.147 250.397 621.621 243.743L626.326 241.009C637.854 247.663 647.201 263.854 647.164 277.099C647.145 283.678 644.814 288.312 641.057 290.495" fill="white"/>
<path d="M621.498 286.022C630.258 291.079 637.406 287.001 637.436 276.934C637.446 272.941 636.331 268.593 634.438 264.488L612.199 277.17C614.809 280.859 618.025 284.017 621.498 286.022V286.022ZM605.665 258.591C605.653 262.59 606.768 266.931 608.662 271.043L630.906 258.365C628.29 254.666 625.076 251.515 621.601 249.509C612.841 244.452 605.693 248.525 605.665 258.591ZM621.618 243.741C633.144 250.395 642.492 266.588 642.454 279.832C642.417 293.076 633.008 298.439 621.481 291.784C609.955 285.128 600.608 268.938 600.645 255.692C600.683 242.448 610.092 237.087 621.618 243.741Z" fill="white"/>
<path d="M612.203 277.171L634.443 264.49C636.336 268.595 637.45 272.943 637.44 276.935C637.41 287.003 630.262 291.081 621.502 286.024C618.029 284.018 614.813 280.86 612.203 277.171" fill="#E83F3F"/>
<path d="M621.608 249.511C625.083 251.517 628.297 254.668 630.914 258.367L608.669 271.045C606.775 266.934 605.66 262.592 605.672 258.593C605.7 248.527 612.848 244.454 621.608 249.511Z" fill="#E83F3F"/>
<path d="M621.484 291.785C633.01 298.441 642.42 293.077 642.457 279.834C642.494 266.59 633.147 250.397 621.621 243.743C610.094 237.088 600.686 242.45 600.647 255.694C600.61 268.94 609.958 285.13 621.484 291.785ZM648.614 246.908C651.23 248.418 653.344 252.079 653.336 255.086L653.16 317.041C653.151 320.046 651.023 321.26 648.407 319.748L594.491 288.62C591.874 287.11 589.761 283.449 589.77 280.442L589.946 218.487C589.953 215.481 592.081 214.268 594.697 215.778L648.614 246.908Z" fill="#E83F3F"/>
<path d="M653.321 244.174L599.405 213.045C598.087 212.286 596.895 212.214 596.033 212.715L591.328 215.45C592.188 214.95 593.382 215.02 594.698 215.779L648.615 246.909C651.232 248.419 653.345 252.08 653.338 255.087L653.162 317.041C653.158 318.536 652.631 319.586 651.78 320.08L656.485 317.345C657.336 316.852 657.864 315.8 657.866 314.307L658.043 252.352C658.052 249.346 655.938 245.685 653.321 244.174Z" fill="#C93737"/>
<path d="M1523.53 -743.462C1569.87 -769.477 1627.15 -736.402 1627.79 -683.266L1639.52 291.545C1640.17 345.802 1581.52 380.139 1534.53 353.009L672.724 -144.553C625.732 -171.683 626.141 -239.65 673.456 -266.213L1523.53 -743.462Z" fill="white"/>
<path d="M853.873 359.949V364.637H837.486V359.949H853.873ZM841.881 352.762H847.721V381.141C847.721 382.273 847.89 383.126 848.229 383.699C848.567 384.259 849.003 384.643 849.537 384.852C850.084 385.047 850.676 385.145 851.314 385.145C851.783 385.145 852.193 385.112 852.545 385.047C852.896 384.982 853.17 384.93 853.365 384.891L854.42 389.715C854.081 389.845 853.6 389.975 852.975 390.105C852.35 390.249 851.568 390.327 850.631 390.34C849.094 390.366 847.662 390.092 846.334 389.52C845.006 388.947 843.932 388.061 843.111 386.863C842.291 385.665 841.881 384.161 841.881 382.352V352.762ZM866.817 372.137V389.949H860.978V349.949H866.739V364.832H867.11C867.813 363.217 868.888 361.935 870.333 360.984C871.778 360.034 873.666 359.559 875.997 359.559C878.054 359.559 879.851 359.982 881.388 360.828C882.937 361.674 884.135 362.937 884.981 364.617C885.841 366.284 886.271 368.367 886.271 370.867V389.949H880.431V371.57C880.431 369.37 879.864 367.664 878.731 366.453C877.599 365.229 876.023 364.617 874.005 364.617C872.625 364.617 871.388 364.91 870.294 365.496C869.213 366.082 868.36 366.941 867.735 368.074C867.123 369.194 866.817 370.548 866.817 372.137ZM906.993 390.555C904.037 390.555 901.492 389.923 899.356 388.66C897.234 387.384 895.593 385.594 894.435 383.289C893.289 380.971 892.716 378.257 892.716 375.145C892.716 372.072 893.289 369.363 894.435 367.02C895.593 364.676 897.208 362.846 899.278 361.531C901.362 360.216 903.797 359.559 906.583 359.559C908.276 359.559 909.916 359.839 911.505 360.398C913.093 360.958 914.519 361.837 915.782 363.035C917.045 364.233 918.041 365.789 918.771 367.703C919.5 369.604 919.864 371.915 919.864 374.637V376.707H896.017V372.332H914.142C914.142 370.796 913.829 369.435 913.204 368.25C912.579 367.052 911.7 366.108 910.567 365.418C909.448 364.728 908.132 364.383 906.622 364.383C904.981 364.383 903.549 364.786 902.325 365.594C901.114 366.388 900.177 367.43 899.513 368.719C898.862 369.995 898.536 371.382 898.536 372.879V376.297C898.536 378.302 898.888 380.008 899.591 381.414C900.307 382.82 901.303 383.895 902.579 384.637C903.855 385.366 905.346 385.73 907.052 385.73C908.159 385.73 909.168 385.574 910.079 385.262C910.991 384.936 911.778 384.454 912.442 383.816C913.106 383.178 913.614 382.391 913.966 381.453L919.493 382.449C919.05 384.077 918.256 385.503 917.11 386.727C915.978 387.937 914.552 388.882 912.833 389.559C911.127 390.223 909.181 390.555 906.993 390.555ZM940.899 389.949V359.949H946.544V364.715H946.856C947.403 363.1 948.367 361.831 949.747 360.906C951.14 359.969 952.716 359.5 954.474 359.5C954.838 359.5 955.268 359.513 955.763 359.539C956.271 359.565 956.668 359.598 956.954 359.637V365.223C956.72 365.158 956.303 365.086 955.704 365.008C955.105 364.917 954.506 364.871 953.907 364.871C952.527 364.871 951.297 365.164 950.216 365.75C949.148 366.323 948.302 367.124 947.677 368.152C947.052 369.168 946.739 370.327 946.739 371.629V389.949H940.899ZM973.863 390.555C970.908 390.555 968.362 389.923 966.227 388.66C964.104 387.384 962.464 385.594 961.305 383.289C960.159 380.971 959.586 378.257 959.586 375.145C959.586 372.072 960.159 369.363 961.305 367.02C962.464 364.676 964.078 362.846 966.148 361.531C968.232 360.216 970.667 359.559 973.453 359.559C975.146 359.559 976.786 359.839 978.375 360.398C979.964 360.958 981.389 361.837 982.652 363.035C983.915 364.233 984.911 365.789 985.641 367.703C986.37 369.604 986.734 371.915 986.734 374.637V376.707H962.887V372.332H981.012C981.012 370.796 980.699 369.435 980.074 368.25C979.449 367.052 978.57 366.108 977.438 365.418C976.318 364.728 975.003 364.383 973.492 364.383C971.852 364.383 970.419 364.786 969.195 365.594C967.984 366.388 967.047 367.43 966.383 368.719C965.732 369.995 965.406 371.382 965.406 372.879V376.297C965.406 378.302 965.758 380.008 966.461 381.414C967.177 382.82 968.173 383.895 969.449 384.637C970.725 385.366 972.216 385.73 973.922 385.73C975.029 385.73 976.038 385.574 976.949 385.262C977.861 384.936 978.648 384.454 979.313 383.816C979.977 383.178 980.484 382.391 980.836 381.453L986.363 382.449C985.921 384.077 985.126 385.503 983.98 386.727C982.848 387.937 981.422 388.882 979.703 389.559C977.997 390.223 976.051 390.555 973.863 390.555ZM1013.47 401.199V385.281H1013.12C1012.76 385.919 1012.26 386.648 1011.59 387.469C1010.94 388.289 1010.04 389.005 1008.9 389.617C1007.75 390.229 1006.27 390.535 1004.44 390.535C1002.02 390.535 999.861 389.917 997.96 388.68C996.072 387.43 994.588 385.652 993.507 383.348C992.439 381.03 991.905 378.25 991.905 375.008C991.905 371.766 992.446 368.992 993.526 366.687C994.62 364.383 996.118 362.618 998.019 361.395C999.92 360.171 1002.07 359.559 1004.48 359.559C1006.35 359.559 1007.84 359.871 1008.98 360.496C1010.12 361.108 1011.01 361.824 1011.63 362.645C1012.27 363.465 1012.76 364.187 1013.12 364.812H1013.6V359.949H1019.31V401.199H1013.47ZM1005.73 385.555C1007.41 385.555 1008.83 385.112 1009.99 384.227C1011.16 383.328 1012.05 382.085 1012.65 380.496C1013.26 378.908 1013.57 377.059 1013.57 374.949C1013.57 372.866 1013.27 371.043 1012.67 369.48C1012.07 367.918 1011.19 366.701 1010.03 365.828C1008.87 364.956 1007.44 364.52 1005.73 364.52C1003.98 364.52 1002.51 364.975 1001.34 365.887C1000.17 366.798 999.282 368.042 998.683 369.617C998.097 371.193 997.804 372.97 997.804 374.949C997.804 376.954 998.103 378.758 998.702 380.359C999.301 381.961 1000.19 383.23 1001.36 384.168C1002.54 385.092 1004 385.555 1005.73 385.555ZM1046.16 377.508V359.949H1052.02V389.949H1046.28V384.754H1045.97C1045.28 386.355 1044.17 387.69 1042.65 388.758C1041.14 389.813 1039.26 390.34 1037 390.34C1035.08 390.34 1033.37 389.917 1031.89 389.07C1030.41 388.211 1029.26 386.941 1028.41 385.262C1027.58 383.582 1027.16 381.505 1027.16 379.031V359.949H1033V378.328C1033 380.372 1033.57 382 1034.7 383.211C1035.83 384.422 1037.3 385.027 1039.11 385.027C1040.21 385.027 1041.29 384.754 1042.37 384.207C1043.47 383.66 1044.37 382.833 1045.09 381.727C1045.82 380.62 1046.18 379.214 1046.16 377.508ZM1072.8 390.555C1069.84 390.555 1067.3 389.923 1065.16 388.66C1063.04 387.384 1061.4 385.594 1060.24 383.289C1059.09 380.971 1058.52 378.257 1058.52 375.145C1058.52 372.072 1059.09 369.363 1060.24 367.02C1061.4 364.676 1063.01 362.846 1065.08 361.531C1067.17 360.216 1069.6 359.559 1072.39 359.559C1074.08 359.559 1075.72 359.839 1077.31 360.398C1078.9 360.958 1080.32 361.837 1081.59 363.035C1082.85 364.233 1083.85 365.789 1084.58 367.703C1085.31 369.604 1085.67 371.915 1085.67 374.637V376.707H1061.82V372.332H1079.95C1079.95 370.796 1079.63 369.435 1079.01 368.25C1078.38 367.052 1077.51 366.108 1076.37 365.418C1075.25 364.728 1073.94 364.383 1072.43 364.383C1070.79 364.383 1069.35 364.786 1068.13 365.594C1066.92 366.388 1065.98 367.43 1065.32 368.719C1064.67 369.995 1064.34 371.382 1064.34 372.879V376.297C1064.34 378.302 1064.69 380.008 1065.4 381.414C1066.11 382.82 1067.11 383.895 1068.38 384.637C1069.66 385.366 1071.15 385.73 1072.86 385.73C1073.96 385.73 1074.97 385.574 1075.88 385.262C1076.8 384.936 1077.58 384.454 1078.25 383.816C1078.91 383.178 1079.42 382.391 1079.77 381.453L1085.3 382.449C1084.86 384.077 1084.06 385.503 1082.92 386.727C1081.78 387.937 1080.36 388.882 1078.64 389.559C1076.93 390.223 1074.99 390.555 1072.8 390.555ZM1114.63 367.273L1109.34 368.211C1109.12 367.534 1108.76 366.889 1108.28 366.277C1107.81 365.665 1107.18 365.164 1106.37 364.773C1105.56 364.383 1104.55 364.187 1103.34 364.187C1101.69 364.187 1100.31 364.559 1099.2 365.301C1098.09 366.03 1097.54 366.974 1097.54 368.133C1097.54 369.135 1097.91 369.943 1098.65 370.555C1099.4 371.167 1100.59 371.668 1102.25 372.059L1107.01 373.152C1109.77 373.79 1111.83 374.773 1113.18 376.102C1114.54 377.43 1115.22 379.155 1115.22 381.277C1115.22 383.074 1114.69 384.676 1113.65 386.082C1112.62 387.475 1111.19 388.569 1109.34 389.363C1107.5 390.158 1105.37 390.555 1102.95 390.555C1099.59 390.555 1096.85 389.839 1094.73 388.406C1092.61 386.961 1091.3 384.91 1090.82 382.254L1096.47 381.395C1096.82 382.866 1097.54 383.979 1098.63 384.734C1099.73 385.477 1101.15 385.848 1102.91 385.848C1104.83 385.848 1106.36 385.451 1107.5 384.656C1108.65 383.849 1109.22 382.866 1109.22 381.707C1109.22 380.77 1108.87 379.982 1108.17 379.344C1107.47 378.706 1106.41 378.224 1104.98 377.898L1099.9 376.785C1097.1 376.147 1095.03 375.132 1093.69 373.738C1092.36 372.345 1091.7 370.581 1091.7 368.445C1091.7 366.674 1092.19 365.125 1093.18 363.797C1094.17 362.469 1095.54 361.434 1097.29 360.691C1099.03 359.936 1101.03 359.559 1103.28 359.559C1106.52 359.559 1109.08 360.262 1110.94 361.668C1112.8 363.061 1114.03 364.93 1114.63 367.273ZM1135.64 359.949V364.637H1119.25V359.949H1135.64ZM1123.65 352.762H1129.49V381.141C1129.49 382.273 1129.66 383.126 1130 383.699C1130.33 384.259 1130.77 384.643 1131.3 384.852C1131.85 385.047 1132.44 385.145 1133.08 385.145C1133.55 385.145 1133.96 385.112 1134.31 385.047C1134.66 384.982 1134.94 384.93 1135.13 384.891L1136.19 389.715C1135.85 389.845 1135.37 389.975 1134.74 390.105C1134.12 390.249 1133.34 390.327 1132.4 390.34C1130.86 390.366 1129.43 390.092 1128.1 389.52C1126.77 388.947 1125.7 388.061 1124.88 386.863C1124.06 385.665 1123.65 384.161 1123.65 382.352V352.762ZM1154.71 390.555C1151.75 390.555 1149.21 389.923 1147.07 388.66C1144.95 387.384 1143.31 385.594 1142.15 383.289C1141 380.971 1140.43 378.257 1140.43 375.145C1140.43 372.072 1141 369.363 1142.15 367.02C1143.31 364.676 1144.92 362.846 1146.99 361.531C1149.08 360.216 1151.51 359.559 1154.3 359.559C1155.99 359.559 1157.63 359.839 1159.22 360.398C1160.81 360.958 1162.23 361.837 1163.5 363.035C1164.76 364.233 1165.76 365.789 1166.49 367.703C1167.21 369.604 1167.58 371.915 1167.58 374.637V376.707H1143.73V372.332H1161.86C1161.86 370.796 1161.54 369.435 1160.92 368.25C1160.29 367.052 1159.42 366.108 1158.28 365.418C1157.16 364.728 1155.85 364.383 1154.34 364.383C1152.7 364.383 1151.26 364.786 1150.04 365.594C1148.83 366.388 1147.89 367.43 1147.23 368.719C1146.58 369.995 1146.25 371.382 1146.25 372.879V376.297C1146.25 378.302 1146.6 380.008 1147.31 381.414C1148.02 382.82 1149.02 383.895 1150.29 384.637C1151.57 385.366 1153.06 385.73 1154.77 385.73C1155.87 385.73 1156.88 385.574 1157.79 385.262C1158.71 384.936 1159.49 384.454 1160.16 383.816C1160.82 383.178 1161.33 382.391 1161.68 381.453L1167.21 382.449C1166.77 384.077 1165.97 385.503 1164.83 386.727C1163.69 387.937 1162.27 388.882 1160.55 389.559C1158.84 390.223 1156.9 390.555 1154.71 390.555ZM1185.29 390.535C1182.87 390.535 1180.71 389.917 1178.8 388.68C1176.92 387.43 1175.43 385.652 1174.35 383.348C1173.28 381.03 1172.75 378.25 1172.75 375.008C1172.75 371.766 1173.29 368.992 1174.37 366.687C1175.46 364.383 1176.96 362.618 1178.86 361.395C1180.76 360.171 1182.92 359.559 1185.33 359.559C1187.19 359.559 1188.69 359.871 1189.82 360.496C1190.97 361.108 1191.85 361.824 1192.48 362.645C1193.11 363.465 1193.61 364.187 1193.96 364.812H1194.31V349.949H1200.15V389.949H1194.45V385.281H1193.96C1193.61 385.919 1193.1 386.648 1192.44 387.469C1191.79 388.289 1190.89 389.005 1189.74 389.617C1188.6 390.229 1187.11 390.535 1185.29 390.535ZM1186.58 385.555C1188.26 385.555 1189.68 385.112 1190.84 384.227C1192.01 383.328 1192.89 382.085 1193.49 380.496C1194.1 378.908 1194.41 377.059 1194.41 374.949C1194.41 372.866 1194.11 371.043 1193.51 369.48C1192.91 367.918 1192.03 366.701 1190.88 365.828C1189.72 364.956 1188.28 364.52 1186.58 364.52C1184.82 364.52 1183.36 364.975 1182.18 365.887C1181.01 366.798 1180.13 368.042 1179.53 369.617C1178.94 371.193 1178.65 372.97 1178.65 374.949C1178.65 376.954 1178.95 378.758 1179.55 380.359C1180.15 381.961 1181.03 383.23 1182.2 384.168C1183.39 385.092 1184.85 385.555 1186.58 385.555ZM1247.3 349.949H1255.76V375.926C1255.76 378.842 1255.06 381.395 1253.67 383.582C1252.29 385.77 1250.35 387.475 1247.87 388.699C1245.38 389.91 1242.48 390.516 1239.18 390.516C1235.86 390.516 1232.95 389.91 1230.46 388.699C1227.98 387.475 1226.04 385.77 1224.66 383.582C1223.28 381.395 1222.59 378.842 1222.59 375.926V349.949H1231.05V375.203C1231.05 376.727 1231.38 378.081 1232.05 379.266C1232.72 380.451 1233.67 381.382 1234.9 382.059C1236.12 382.736 1237.55 383.074 1239.18 383.074C1240.82 383.074 1242.24 382.736 1243.45 382.059C1244.68 381.382 1245.62 380.451 1246.29 379.266C1246.96 378.081 1247.3 376.727 1247.3 375.203V349.949ZM1262.72 389.949V349.949H1278.5C1281.52 349.949 1284.1 350.49 1286.23 351.57C1288.38 352.638 1290.01 354.155 1291.13 356.121C1292.27 358.074 1292.83 360.372 1292.83 363.016C1292.83 365.672 1292.26 367.957 1291.11 369.871C1289.97 371.772 1288.31 373.23 1286.13 374.246C1283.97 375.262 1281.36 375.77 1278.28 375.77H1267.72V368.973H1276.92C1278.53 368.973 1279.87 368.751 1280.94 368.309C1282.01 367.866 1282.8 367.202 1283.32 366.316C1283.86 365.431 1284.12 364.331 1284.12 363.016C1284.12 361.687 1283.86 360.568 1283.32 359.656C1282.8 358.745 1282 358.055 1280.92 357.586C1279.85 357.104 1278.5 356.863 1276.88 356.863H1271.17V389.949H1262.72ZM1284.32 371.746L1294.26 389.949H1284.92L1275.2 371.746H1284.32ZM1298.81 389.949V349.949H1307.27V382.977H1324.42V389.949H1298.81ZM958.355 456.949L949.215 426.949H954.059L960.543 449.918H960.855L967.262 426.949H972.184L978.512 449.84H978.824L985.309 426.949H990.152L981.012 456.949H976.48L969.918 433.902H969.449L962.887 456.949H958.355ZM1005.07 457.652C1003.17 457.652 1001.45 457.294 999.898 456.578C998.349 455.849 997.118 454.801 996.207 453.434C995.296 452.053 994.84 450.387 994.84 448.434C994.84 446.715 995.178 445.322 995.855 444.254C996.533 443.173 997.438 442.327 998.57 441.715C999.703 441.103 1000.95 440.647 1002.32 440.348C1003.7 440.035 1005.09 439.788 1006.48 439.605C1008.3 439.371 1009.78 439.195 1010.91 439.078C1012.06 438.948 1012.89 438.733 1013.41 438.434C1013.95 438.134 1014.21 437.613 1014.21 436.871V436.715C1014.21 434.788 1013.69 433.29 1012.63 432.223C1011.59 431.155 1010.01 430.621 1007.89 430.621C1005.69 430.621 1003.96 431.103 1002.71 432.066C1001.46 433.03 1000.58 434.059 1000.07 435.152L995.699 433.59C996.48 431.767 997.522 430.348 998.824 429.332C1000.14 428.303 1001.57 427.587 1003.12 427.184C1004.68 426.767 1006.22 426.559 1007.73 426.559C1008.69 426.559 1009.8 426.676 1011.05 426.91C1012.31 427.132 1013.53 427.594 1014.7 428.297C1015.89 429 1016.87 430.061 1017.65 431.48C1018.43 432.9 1018.82 434.801 1018.82 437.184V456.949H1014.21V452.887H1013.98C1013.67 453.538 1013.15 454.234 1012.42 454.977C1011.69 455.719 1010.72 456.35 1009.51 456.871C1008.3 457.392 1006.82 457.652 1005.07 457.652ZM1005.78 453.512C1007.6 453.512 1009.14 453.154 1010.39 452.438C1011.65 451.721 1012.6 450.797 1013.24 449.664C1013.89 448.531 1014.21 447.34 1014.21 446.09V441.871C1014.02 442.105 1013.59 442.32 1012.93 442.516C1012.27 442.698 1011.52 442.861 1010.66 443.004C1009.81 443.134 1008.99 443.251 1008.18 443.355C1007.39 443.447 1006.74 443.525 1006.25 443.59C1005.05 443.746 1003.93 444 1002.89 444.352C1001.86 444.69 1001.02 445.204 1000.39 445.895C999.762 446.572 999.449 447.496 999.449 448.668C999.449 450.27 1000.04 451.48 1001.23 452.301C1002.42 453.108 1003.94 453.512 1005.78 453.512ZM1048.49 433.668L1044.35 434.84C1044.09 434.15 1043.7 433.479 1043.19 432.828C1042.7 432.164 1042.02 431.617 1041.16 431.187C1040.3 430.758 1039.2 430.543 1037.86 430.543C1036.03 430.543 1034.5 430.966 1033.27 431.812C1032.06 432.646 1031.46 433.707 1031.46 434.996C1031.46 436.142 1031.87 437.047 1032.71 437.711C1033.54 438.375 1034.84 438.928 1036.61 439.371L1041.07 440.465C1043.75 441.116 1045.75 442.112 1047.06 443.453C1048.38 444.781 1049.03 446.493 1049.03 448.59C1049.03 450.309 1048.54 451.845 1047.55 453.199C1046.57 454.553 1045.21 455.621 1043.45 456.402C1041.69 457.184 1039.65 457.574 1037.32 457.574C1034.26 457.574 1031.72 456.91 1029.72 455.582C1027.71 454.254 1026.44 452.314 1025.91 449.762L1030.28 448.668C1030.7 450.283 1031.49 451.493 1032.65 452.301C1033.82 453.108 1035.35 453.512 1037.24 453.512C1039.39 453.512 1041.09 453.056 1042.35 452.145C1043.63 451.22 1044.27 450.113 1044.27 448.824C1044.27 447.783 1043.9 446.91 1043.17 446.207C1042.45 445.491 1041.33 444.957 1039.82 444.605L1034.82 443.434C1032.07 442.783 1030.05 441.773 1028.76 440.406C1027.48 439.026 1026.85 437.301 1026.85 435.23C1026.85 433.538 1027.32 432.04 1028.27 430.738C1029.24 429.436 1030.54 428.414 1032.2 427.672C1033.86 426.93 1035.75 426.559 1037.86 426.559C1040.83 426.559 1043.16 427.21 1044.85 428.512C1046.56 429.814 1047.77 431.533 1048.49 433.668ZM1078.86 439.605V456.949H1070.54V426.949H1078.47V432.242H1078.82C1079.49 430.497 1080.6 429.117 1082.16 428.102C1083.73 427.073 1085.62 426.559 1087.85 426.559C1089.93 426.559 1091.75 427.014 1093.3 427.926C1094.85 428.837 1096.05 430.139 1096.91 431.832C1097.77 433.512 1098.2 435.517 1098.2 437.848V456.949H1089.88V439.332C1089.89 437.496 1089.42 436.064 1088.47 435.035C1087.52 433.993 1086.21 433.473 1084.55 433.473C1083.43 433.473 1082.44 433.714 1081.58 434.195C1080.73 434.677 1080.07 435.38 1079.59 436.305C1079.12 437.216 1078.88 438.316 1078.86 439.605ZM1118.31 457.535C1115.28 457.535 1112.65 456.891 1110.44 455.602C1108.24 454.299 1106.54 452.49 1105.34 450.172C1104.14 447.841 1103.55 445.139 1103.55 442.066C1103.55 438.967 1104.14 436.259 1105.34 433.941C1106.54 431.611 1108.24 429.801 1110.44 428.512C1112.65 427.21 1115.28 426.559 1118.31 426.559C1121.35 426.559 1123.96 427.21 1126.16 428.512C1128.38 429.801 1130.08 431.611 1131.28 433.941C1132.48 436.259 1133.08 438.967 1133.08 442.066C1133.08 445.139 1132.48 447.841 1131.28 450.172C1130.08 452.49 1128.38 454.299 1126.16 455.602C1123.96 456.891 1121.35 457.535 1118.31 457.535ZM1118.35 451.09C1119.73 451.09 1120.88 450.699 1121.81 449.918C1122.73 449.124 1123.43 448.043 1123.9 446.676C1124.38 445.309 1124.62 443.753 1124.62 442.008C1124.62 440.263 1124.38 438.707 1123.9 437.34C1123.43 435.973 1122.73 434.892 1121.81 434.098C1120.88 433.303 1119.73 432.906 1118.35 432.906C1116.96 432.906 1115.79 433.303 1114.83 434.098C1113.9 434.892 1113.19 435.973 1112.71 437.34C1112.24 438.707 1112 440.263 1112 442.008C1112 443.753 1112.24 445.309 1112.71 446.676C1113.19 448.043 1113.9 449.124 1114.83 449.918C1115.79 450.699 1116.96 451.09 1118.35 451.09ZM1154.44 426.949V433.199H1136.38V426.949H1154.44ZM1140.48 419.762H1148.8V447.73C1148.8 448.499 1148.92 449.098 1149.15 449.527C1149.39 449.944 1149.71 450.237 1150.13 450.406C1150.56 450.576 1151.05 450.66 1151.61 450.66C1152 450.66 1152.39 450.628 1152.78 450.562C1153.17 450.484 1153.47 450.426 1153.68 450.387L1154.99 456.578C1154.57 456.708 1153.99 456.858 1153.23 457.027C1152.48 457.21 1151.56 457.32 1150.48 457.359C1148.47 457.438 1146.72 457.171 1145.21 456.559C1143.71 455.947 1142.54 454.996 1141.71 453.707C1140.88 452.418 1140.47 450.79 1140.48 448.824V419.762ZM1188.73 426.949V433.199H1170.21V426.949H1188.73ZM1174.45 456.949V424.781C1174.45 422.607 1174.87 420.803 1175.72 419.371C1176.58 417.939 1177.75 416.865 1179.23 416.148C1180.72 415.432 1182.4 415.074 1184.29 415.074C1185.57 415.074 1186.73 415.172 1187.79 415.367C1188.86 415.562 1189.65 415.738 1190.17 415.895L1188.69 422.145C1188.36 422.04 1187.96 421.943 1187.48 421.852C1187.01 421.76 1186.53 421.715 1186.03 421.715C1184.81 421.715 1183.95 422.001 1183.47 422.574C1182.99 423.134 1182.75 423.922 1182.75 424.938V456.949H1174.45ZM1206.29 457.535C1203.26 457.535 1200.63 456.891 1198.42 455.602C1196.22 454.299 1194.52 452.49 1193.32 450.172C1192.12 447.841 1191.52 445.139 1191.52 442.066C1191.52 438.967 1192.12 436.259 1193.32 433.941C1194.52 431.611 1196.22 429.801 1198.42 428.512C1200.63 427.21 1203.26 426.559 1206.29 426.559C1209.32 426.559 1211.94 427.21 1214.14 428.512C1216.36 429.801 1218.06 431.611 1219.26 433.941C1220.46 436.259 1221.06 438.967 1221.06 442.066C1221.06 445.139 1220.46 447.841 1219.26 450.172C1218.06 452.49 1216.36 454.299 1214.14 455.602C1211.94 456.891 1209.32 457.535 1206.29 457.535ZM1206.33 451.09C1207.71 451.09 1208.86 450.699 1209.79 449.918C1210.71 449.124 1211.41 448.043 1211.88 446.676C1212.36 445.309 1212.6 443.753 1212.6 442.008C1212.6 440.263 1212.36 438.707 1211.88 437.34C1211.41 435.973 1210.71 434.892 1209.79 434.098C1208.86 433.303 1207.71 432.906 1206.33 432.906C1204.94 432.906 1203.76 433.303 1202.81 434.098C1201.88 434.892 1201.17 435.973 1200.68 437.34C1200.22 438.707 1199.98 440.263 1199.98 442.008C1199.98 443.753 1200.22 445.309 1200.68 446.676C1201.17 448.043 1201.88 449.124 1202.81 449.918C1203.76 450.699 1204.94 451.09 1206.33 451.09ZM1245.7 444.176V426.949H1254.02V456.949H1246.04V451.5H1245.72C1245.05 453.258 1243.92 454.671 1242.34 455.738C1240.78 456.806 1238.87 457.34 1236.62 457.34C1234.62 457.34 1232.85 456.884 1231.33 455.973C1229.81 455.061 1228.61 453.766 1227.75 452.086C1226.91 450.406 1226.48 448.395 1226.47 446.051V426.949H1234.79V444.566C1234.8 446.337 1235.27 447.737 1236.21 448.766C1237.15 449.794 1238.41 450.309 1239.98 450.309C1240.98 450.309 1241.92 450.081 1242.79 449.625C1243.67 449.156 1244.37 448.466 1244.9 447.555C1245.45 446.643 1245.72 445.517 1245.7 444.176ZM1269 439.605V456.949H1260.68V426.949H1268.61V432.242H1268.96C1269.63 430.497 1270.74 429.117 1272.3 428.102C1273.86 427.073 1275.76 426.559 1277.98 426.559C1280.07 426.559 1281.88 427.014 1283.43 427.926C1284.98 428.837 1286.19 430.139 1287.05 431.832C1287.91 433.512 1288.34 435.517 1288.34 437.848V456.949H1280.02V439.332C1280.03 437.496 1279.56 436.064 1278.61 435.035C1277.66 433.993 1276.35 433.473 1274.68 433.473C1273.56 433.473 1272.57 433.714 1271.71 434.195C1270.87 434.677 1270.2 435.38 1269.72 436.305C1269.25 437.216 1269.01 438.316 1269 439.605ZM1305.95 457.437C1303.67 457.437 1301.61 456.852 1299.76 455.68C1297.92 454.495 1296.46 452.757 1295.38 450.465C1294.31 448.16 1293.78 445.335 1293.78 441.988C1293.78 438.551 1294.33 435.693 1295.44 433.414C1296.55 431.122 1298.02 429.41 1299.85 428.277C1301.7 427.132 1303.73 426.559 1305.93 426.559C1307.61 426.559 1309.01 426.845 1310.13 427.418C1311.26 427.978 1312.17 428.681 1312.86 429.527C1313.57 430.361 1314.1 431.181 1314.46 431.988H1314.72V416.949H1323.02V456.949H1314.82V452.145H1314.46C1314.07 452.978 1313.52 453.805 1312.8 454.625C1312.1 455.432 1311.18 456.103 1310.05 456.637C1308.93 457.171 1307.56 457.437 1305.95 457.437ZM1308.58 450.816C1309.93 450.816 1311.06 450.452 1311.98 449.723C1312.92 448.98 1313.64 447.945 1314.13 446.617C1314.64 445.289 1314.89 443.733 1314.89 441.949C1314.89 440.165 1314.65 438.616 1314.15 437.301C1313.66 435.986 1312.94 434.97 1312 434.254C1311.07 433.538 1309.93 433.18 1308.58 433.18C1307.22 433.18 1306.07 433.551 1305.13 434.293C1304.19 435.035 1303.48 436.064 1303 437.379C1302.52 438.694 1302.28 440.217 1302.28 441.949C1302.28 443.694 1302.52 445.237 1303 446.578C1303.49 447.906 1304.2 448.948 1305.13 449.703C1306.07 450.445 1307.22 450.816 1308.58 450.816ZM987.97 524.574C985.261 524.574 982.885 523.93 980.841 522.641C978.81 521.352 977.221 519.548 976.075 517.23C974.942 514.913 974.376 512.204 974.376 509.105C974.376 505.98 974.942 503.253 976.075 500.922C977.221 498.591 978.81 496.781 980.841 495.492C982.885 494.203 985.261 493.559 987.97 493.559C990.678 493.559 993.048 494.203 995.079 495.492C997.123 496.781 998.712 498.591 999.845 500.922C1000.99 503.253 1001.56 505.98 1001.56 509.105C1001.56 512.204 1000.99 514.913 999.845 517.23C998.712 519.548 997.123 521.352 995.079 522.641C993.048 523.93 990.678 524.574 987.97 524.574ZM987.97 520.434C990.027 520.434 991.72 519.906 993.048 518.852C994.376 517.797 995.359 516.41 995.997 514.691C996.635 512.973 996.954 511.111 996.954 509.105C996.954 507.1 996.635 505.232 995.997 503.5C995.359 501.768 994.376 500.368 993.048 499.301C991.72 498.233 990.027 497.699 987.97 497.699C985.912 497.699 984.22 498.233 982.892 499.301C981.563 500.368 980.58 501.768 979.942 503.5C979.304 505.232 978.985 507.1 978.985 509.105C978.985 511.111 979.304 512.973 979.942 514.691C980.58 516.41 981.563 517.797 982.892 518.852C984.22 519.906 985.912 520.434 987.97 520.434ZM1013.21 505.902V523.949H1008.6V493.949H1013.05V498.637H1013.44C1014.15 497.113 1015.21 495.889 1016.65 494.965C1018.08 494.027 1019.93 493.559 1022.19 493.559C1024.22 493.559 1026 493.975 1027.53 494.809C1029.05 495.629 1030.23 496.879 1031.08 498.559C1031.93 500.225 1032.35 502.335 1032.35 504.887V523.949H1027.74V505.199C1027.74 502.842 1027.13 501.007 1025.9 499.691C1024.68 498.363 1023 497.699 1020.87 497.699C1019.39 497.699 1018.08 498.018 1016.92 498.656C1015.77 499.294 1014.87 500.225 1014.21 501.449C1013.54 502.673 1013.21 504.158 1013.21 505.902ZM1069.29 493.949V497.855H1053.74V493.949H1069.29ZM1058.27 486.762H1062.88V515.355C1062.88 516.658 1063.07 517.634 1063.45 518.285C1063.84 518.923 1064.33 519.353 1064.93 519.574C1065.54 519.783 1066.19 519.887 1066.87 519.887C1067.37 519.887 1067.79 519.861 1068.12 519.809C1068.44 519.743 1068.7 519.691 1068.9 519.652L1069.83 523.793C1069.52 523.91 1069.09 524.027 1068.53 524.145C1067.97 524.275 1067.26 524.34 1066.4 524.34C1065.1 524.34 1063.82 524.06 1062.57 523.5C1061.33 522.94 1060.3 522.087 1059.48 520.941C1058.68 519.796 1058.27 518.35 1058.27 516.605V486.762ZM1081.48 505.902V523.949H1076.87V483.949H1081.48V498.637H1081.87C1082.57 497.087 1083.62 495.857 1085.03 494.945C1086.45 494.021 1088.34 493.559 1090.69 493.559C1092.74 493.559 1094.53 493.969 1096.07 494.789C1097.6 495.596 1098.79 496.84 1099.64 498.52C1100.5 500.186 1100.93 502.309 1100.93 504.887V523.949H1096.32V505.199C1096.32 502.816 1095.7 500.974 1094.46 499.672C1093.24 498.357 1091.54 497.699 1089.37 497.699C1087.86 497.699 1086.5 498.018 1085.3 498.656C1084.12 499.294 1083.18 500.225 1082.49 501.449C1081.81 502.673 1081.48 504.158 1081.48 505.902ZM1109.36 523.949V493.949H1113.97V523.949H1109.36ZM1111.71 488.949C1110.81 488.949 1110.03 488.643 1109.38 488.031C1108.74 487.419 1108.42 486.684 1108.42 485.824C1108.42 484.965 1108.74 484.229 1109.38 483.617C1110.03 483.005 1110.81 482.699 1111.71 482.699C1112.6 482.699 1113.37 483.005 1114.01 483.617C1114.66 484.229 1114.99 484.965 1114.99 485.824C1114.99 486.684 1114.66 487.419 1114.01 488.031C1113.37 488.643 1112.6 488.949 1111.71 488.949ZM1143.66 500.668L1139.52 501.84C1139.26 501.15 1138.88 500.479 1138.37 499.828C1137.88 499.164 1137.2 498.617 1136.34 498.187C1135.48 497.758 1134.38 497.543 1133.04 497.543C1131.2 497.543 1129.67 497.966 1128.45 498.812C1127.24 499.646 1126.63 500.707 1126.63 501.996C1126.63 503.142 1127.05 504.047 1127.88 504.711C1128.72 505.375 1130.02 505.928 1131.79 506.371L1136.24 507.465C1138.92 508.116 1140.92 509.112 1142.24 510.453C1143.55 511.781 1144.21 513.493 1144.21 515.59C1144.21 517.309 1143.72 518.845 1142.73 520.199C1141.75 521.553 1140.38 522.621 1138.62 523.402C1136.87 524.184 1134.82 524.574 1132.49 524.574C1129.43 524.574 1126.9 523.91 1124.89 522.582C1122.89 521.254 1121.62 519.314 1121.08 516.762L1125.46 515.668C1125.88 517.283 1126.66 518.493 1127.82 519.301C1129 520.108 1130.53 520.512 1132.41 520.512C1134.56 520.512 1136.27 520.056 1137.53 519.145C1138.81 518.22 1139.44 517.113 1139.44 515.824C1139.44 514.783 1139.08 513.91 1138.35 513.207C1137.62 512.491 1136.5 511.957 1134.99 511.605L1129.99 510.434C1127.24 509.783 1125.23 508.773 1123.94 507.406C1122.66 506.026 1122.02 504.301 1122.02 502.23C1122.02 500.538 1122.5 499.04 1123.45 497.738C1124.41 496.436 1125.72 495.414 1127.37 494.672C1129.04 493.93 1130.93 493.559 1133.04 493.559C1136.01 493.559 1138.34 494.21 1140.03 495.512C1141.74 496.814 1142.95 498.533 1143.66 500.668ZM1187.87 500.668L1183.73 501.84C1183.47 501.15 1183.08 500.479 1182.57 499.828C1182.08 499.164 1181.4 498.617 1180.54 498.187C1179.68 497.758 1178.58 497.543 1177.24 497.543C1175.41 497.543 1173.88 497.966 1172.65 498.812C1171.44 499.646 1170.84 500.707 1170.84 501.996C1170.84 503.142 1171.25 504.047 1172.09 504.711C1172.92 505.375 1174.22 505.928 1175.99 506.371L1180.45 507.465C1183.13 508.116 1185.13 509.112 1186.44 510.453C1187.76 511.781 1188.41 513.493 1188.41 515.59C1188.41 517.309 1187.92 518.845 1186.93 520.199C1185.95 521.553 1184.59 522.621 1182.83 523.402C1181.07 524.184 1179.03 524.574 1176.7 524.574C1173.64 524.574 1171.1 523.91 1169.1 522.582C1167.09 521.254 1165.82 519.314 1165.29 516.762L1169.66 515.668C1170.08 517.283 1170.87 518.493 1172.03 519.301C1173.2 520.108 1174.73 520.512 1176.62 520.512C1178.77 520.512 1180.47 520.056 1181.73 519.145C1183.01 518.22 1183.65 517.113 1183.65 515.824C1183.65 514.783 1183.28 513.91 1182.55 513.207C1181.83 512.491 1180.71 511.957 1179.2 511.605L1174.2 510.434C1171.45 509.783 1169.43 508.773 1168.14 507.406C1166.86 506.026 1166.23 504.301 1166.23 502.23C1166.23 500.538 1166.7 499.04 1167.65 497.738C1168.62 496.436 1169.92 495.414 1171.58 494.672C1173.24 493.93 1175.13 493.559 1177.24 493.559C1180.21 493.559 1182.54 494.21 1184.23 495.512C1185.94 496.814 1187.15 498.533 1187.87 500.668ZM1207.93 524.574C1205.04 524.574 1202.55 523.936 1200.45 522.66C1198.37 521.371 1196.76 519.574 1195.63 517.27C1194.51 514.952 1193.95 512.257 1193.95 509.184C1193.95 506.111 1194.51 503.402 1195.63 501.059C1196.76 498.702 1198.33 496.866 1200.35 495.551C1202.38 494.223 1204.75 493.559 1207.46 493.559C1209.02 493.559 1210.57 493.819 1212.09 494.34C1213.61 494.861 1215 495.707 1216.25 496.879C1217.5 498.038 1218.5 499.574 1219.24 501.488C1219.98 503.402 1220.35 505.759 1220.35 508.559V510.512H1197.23V506.527H1215.67C1215.67 504.835 1215.33 503.324 1214.65 501.996C1213.99 500.668 1213.03 499.62 1211.8 498.852C1210.57 498.083 1209.13 497.699 1207.46 497.699C1205.63 497.699 1204.04 498.155 1202.7 499.066C1201.37 499.965 1200.35 501.137 1199.63 502.582C1198.91 504.027 1198.56 505.577 1198.56 507.23V509.887C1198.56 512.152 1198.95 514.073 1199.73 515.648C1200.52 517.211 1201.62 518.402 1203.03 519.223C1204.43 520.03 1206.07 520.434 1207.93 520.434C1209.14 520.434 1210.24 520.264 1211.21 519.926C1212.2 519.574 1213.05 519.053 1213.77 518.363C1214.49 517.66 1215.04 516.788 1215.43 515.746L1219.88 516.996C1219.42 518.507 1218.63 519.835 1217.52 520.98C1216.41 522.113 1215.05 522.999 1213.42 523.637C1211.79 524.262 1209.96 524.574 1207.93 524.574ZM1227.36 523.949V493.949H1231.82V498.48H1232.13C1232.68 496.996 1233.67 495.792 1235.1 494.867C1236.53 493.943 1238.15 493.48 1239.94 493.48C1240.28 493.48 1240.7 493.487 1241.21 493.5C1241.72 493.513 1242.1 493.533 1242.36 493.559V498.246C1242.21 498.207 1241.85 498.148 1241.29 498.07C1240.74 497.979 1240.16 497.934 1239.55 497.934C1238.09 497.934 1236.79 498.24 1235.65 498.852C1234.51 499.451 1233.61 500.284 1232.95 501.352C1232.3 502.406 1231.97 503.611 1231.97 504.965V523.949H1227.36ZM1273.27 493.949L1262.18 523.949H1257.49L1246.4 493.949H1251.4L1259.68 517.855H1259.99L1268.27 493.949H1273.27ZM1290.86 524.574C1287.97 524.574 1285.48 523.936 1283.38 522.66C1281.3 521.371 1279.69 519.574 1278.56 517.27C1277.44 514.952 1276.88 512.257 1276.88 509.184C1276.88 506.111 1277.44 503.402 1278.56 501.059C1279.69 498.702 1281.26 496.866 1283.28 495.551C1285.31 494.223 1287.68 493.559 1290.39 493.559C1291.95 493.559 1293.5 493.819 1295.02 494.34C1296.54 494.861 1297.93 495.707 1299.18 496.879C1300.43 498.038 1301.43 499.574 1302.17 501.488C1302.91 503.402 1303.28 505.759 1303.28 508.559V510.512H1280.16V506.527H1298.59C1298.59 504.835 1298.26 503.324 1297.58 501.996C1296.92 500.668 1295.96 499.62 1294.73 498.852C1293.5 498.083 1292.06 497.699 1290.39 497.699C1288.56 497.699 1286.97 498.155 1285.63 499.066C1284.3 499.965 1283.28 501.137 1282.56 502.582C1281.84 504.027 1281.49 505.577 1281.49 507.23V509.887C1281.49 512.152 1281.88 514.073 1282.66 515.648C1283.45 517.211 1284.55 518.402 1285.96 519.223C1287.36 520.03 1289 520.434 1290.86 520.434C1292.07 520.434 1293.17 520.264 1294.14 519.926C1295.13 519.574 1295.98 519.053 1296.7 518.363C1297.42 517.66 1297.97 516.788 1298.36 515.746L1302.81 516.996C1302.34 518.507 1301.56 519.835 1300.45 520.98C1299.34 522.113 1297.98 522.999 1296.35 523.637C1294.72 524.262 1292.89 524.574 1290.86 524.574ZM1310.29 523.949V493.949H1314.75V498.48H1315.06C1315.61 496.996 1316.6 495.792 1318.03 494.867C1319.46 493.943 1321.08 493.48 1322.87 493.48C1323.21 493.48 1323.63 493.487 1324.14 493.5C1324.65 493.513 1325.03 493.533 1325.29 493.559V498.246C1325.14 498.207 1324.78 498.148 1324.22 498.07C1323.67 497.979 1323.09 497.934 1322.48 497.934C1321.02 497.934 1319.72 498.24 1318.58 498.852C1317.44 499.451 1316.54 500.284 1315.88 501.352C1315.23 502.406 1314.9 503.611 1314.9 504.965V523.949H1310.29Z" fill="#276BFF"/>
</g>
<defs>
<filter id="filter0_d_2460_15259" x="0.589844" y="0.0351562" width="1404.5" height="612.646" filterUnits="userSpaceOnUse" color-interpolation-filters="sRGB">
<feFlood flood-opacity="0" result="BackgroundImageFix"/>
<feColorMatrix in="SourceAlpha" type="matrix" values="0 0 0 0 0 0 0 0 0 0 0 0 0 0 0 0 0 0 127 0" result="hardAlpha"/>
<feOffset dy="1"/>
<feGaussianBlur stdDeviation="1.5"/>
<feComposite in2="hardAlpha" operator="out"/>
<feColorMatrix type="matrix" values="0 0 0 0 0.376471 0 0 0 0 0.423529 0 0 0 0 0.501961 0 0 0 0.05 0"/>
<feBlend mode="normal" in2="BackgroundImageFix" result="effect1_dropShadow_2460_15259"/>
<feBlend mode="normal" in="SourceGraphic" in2="effect1_dropShadow_2460_15259" result="shape"/>
</filter>
</defs>
</svg>
