<svg width="89" height="88" viewBox="0 0 89 88" fill="none" xmlns="http://www.w3.org/2000/svg">
<g filter="url(#filter0_iii_3038_16148)">
<rect x="6.40625" y="5.59766" width="76.7422" height="75.8701" rx="3.8" fill="url(#paint0_linear_3038_16148)"/>
</g>
<rect x="6.40625" y="5.59766" width="76.7422" height="75.8701" rx="3.8" fill="url(#paint1_linear_3038_16148)"/>
<rect x="6.40625" y="5.59766" width="76.7422" height="75.8701" rx="3.8" fill="url(#paint2_radial_3038_16148)"/>
<rect x="6.40625" y="5.59766" width="76.7422" height="75.8701" rx="3.8" fill="url(#paint3_radial_3038_16148)"/>
<g filter="url(#filter1_f_3038_16148)">
<path d="M75.746 78.2576C74.2988 78.983 72.6396 79.395 70.876 79.395H59.9219V22.1265C59.9219 20.4882 61.3641 19.1602 63.1435 19.1602H72.5244C74.3036 19.1602 75.746 20.4882 75.746 22.1265V78.2576Z" fill="url(#paint4_linear_3038_16148)"/>
</g>
<path fill-rule="evenodd" clip-rule="evenodd" d="M32.4668 5.59766H29.7168V28.4097H6.40625V31.1284H29.7168V55.5122H6.40625V58.231H29.7168V81.4678H32.4668V58.231H57.2168V81.4678H59.9668V58.231H83.1484V55.5122H59.9668V31.1284H83.1484V28.4097H59.9668V5.59766H57.2168V28.4097H32.4668V5.59766ZM57.2168 31.1284V55.5122H32.4668V31.1284H57.2168Z" fill="url(#paint5_linear_3038_16148)"/>
<path fill-rule="evenodd" clip-rule="evenodd" d="M32.4668 5.59766H29.7168V28.4097H6.40625V31.1284H29.7168V55.5122H6.40625V58.231H29.7168V81.4678H32.4668V58.231H57.2168V81.4678H59.9668V58.231H83.1484V55.5122H59.9668V31.1284H83.1484V28.4097H59.9668V5.59766H57.2168V28.4097H32.4668V5.59766ZM57.2168 31.1284V55.5122H32.4668V31.1284H57.2168Z" fill="url(#paint6_linear_3038_16148)"/>
<path fill-rule="evenodd" clip-rule="evenodd" d="M32.4668 5.59766H29.7168V28.4097H6.40625V31.1284H29.7168V55.5122H6.40625V58.231H29.7168V81.4678H32.4668V58.231H57.2168V81.4678H59.9668V58.231H83.1484V55.5122H59.9668V31.1284H83.1484V28.4097H59.9668V5.59766H57.2168V28.4097H32.4668V5.59766ZM57.2168 31.1284V55.5122H32.4668V31.1284H57.2168Z" fill="url(#paint7_linear_3038_16148)"/>
<path fill-rule="evenodd" clip-rule="evenodd" d="M32.4668 5.59766H29.7168V28.4097H6.40625V31.1284H29.7168V55.5122H6.40625V58.231H29.7168V81.4678H32.4668V58.231H57.2168V81.4678H59.9668V58.231H83.1484V55.5122H59.9668V31.1284H83.1484V28.4097H59.9668V5.59766H57.2168V28.4097H32.4668V5.59766ZM57.2168 31.1284V55.5122H32.4668V31.1284H57.2168Z" fill="url(#paint8_linear_3038_16148)"/>
<path fill-rule="evenodd" clip-rule="evenodd" d="M32.4668 5.59766H29.7168V28.4097H6.40625V31.1284H29.7168V55.5122H6.40625V58.231H29.7168V81.4678H32.4668V58.231H57.2168V81.4678H59.9668V58.231H65.3893V55.5122H59.9668V31.1284H65.3893V28.4097H59.9668V5.59766H57.2168V28.4097H32.4668V5.59766ZM57.2168 31.1284V55.5122H32.4668V31.1284H57.2168Z" fill="url(#paint9_linear_3038_16148)"/>
<path fill-rule="evenodd" clip-rule="evenodd" d="M32.4668 5.59766H29.7168V28.4097H6.40625V31.1284H29.7168V55.5122H6.40625V58.231H29.7168V81.4678H32.4668V58.231H57.2168V81.4678H59.9668V58.231H65.3893V55.5122H59.9668V31.1284H65.3893V28.4097H59.9668V5.59766H57.2168V28.4097H32.4668V5.59766ZM57.2168 31.1284V55.5122H32.4668V31.1284H57.2168Z" fill="url(#paint10_linear_3038_16148)"/>
<path fill-rule="evenodd" clip-rule="evenodd" d="M32.4668 5.59766H29.7168V28.4097H6.40625V31.1284H29.7168V55.5122H6.40625V58.231H29.7168V81.4678H32.4668V58.231H57.2168V81.4678H59.9668V58.231H65.3893V55.5122H59.9668V31.1284H65.3893V28.4097H59.9668V5.59766H57.2168V28.4097H32.4668V5.59766ZM57.2168 31.1284V55.5122H32.4668V31.1284H57.2168Z" fill="url(#paint11_linear_3038_16148)"/>
<g filter="url(#filter2_f_3038_16148)">
<path d="M50.9413 79.9082C49.4941 80.3203 47.8349 80.5545 46.0713 80.5545H35.1172V48.0137C35.1172 47.0828 36.5595 46.3281 38.3388 46.3281H47.7197C49.4989 46.3281 50.9413 47.0828 50.9413 48.0137V79.9082Z" fill="url(#paint12_linear_3038_16148)"/>
</g>
<g filter="url(#filter3_f_3038_16148)">
<path d="M25.8397 77.3265C24.3926 77.9608 22.7333 78.3211 20.9698 78.3211H10.0156V28.2387C10.0156 26.806 11.4579 25.6445 13.2372 25.6445H22.6182C24.3973 25.6445 25.8397 26.806 25.8397 28.2387V77.3265Z" fill="url(#paint13_linear_3038_16148)"/>
</g>
<g filter="url(#filter4_i_3038_16148)">
<path d="M77.6938 80.2165C76.2114 81.0143 74.5118 81.4675 72.7053 81.4675H61.4844V18.4813C61.4844 16.6794 62.9618 15.2188 64.7844 15.2188H74.3938C76.2163 15.2188 77.6938 16.6794 77.6938 18.4813V80.2165Z" fill="url(#paint14_linear_3038_16148)"/>
</g>
<path d="M77.6938 80.2165C76.2114 81.0143 74.5118 81.4675 72.7053 81.4675H61.4844V18.4813C61.4844 16.6794 62.9618 15.2188 64.7844 15.2188H74.3938C76.2163 15.2188 77.6938 16.6794 77.6938 18.4813V80.2165Z" fill="url(#paint15_linear_3038_16148)"/>
<g filter="url(#filter5_f_3038_16148)">
<rect x="73.3672" y="17.7559" width="2.37952" height="61.1758" rx="1.18976" fill="url(#paint16_linear_3038_16148)"/>
</g>
<path d="M37.7887 28.4097H32.4668V5.59766H29.7168V28.4097H6.40625V31.1284H29.7168V55.5122H6.40625V58.231H29.7168V81.4678H32.4668V58.231H37.7887V55.5122H32.4668V31.1284H37.7887V28.4097Z" fill="url(#paint17_radial_3038_16148)"/>
<path d="M37.7887 28.4097H32.4668V5.59766H29.7168V28.4097H6.40625V31.1284H29.7168V55.5122H6.40625V58.231H29.7168V81.4678H32.4668V58.231H37.7887V55.5122H32.4668V31.1284H37.7887V28.4097Z" fill="url(#paint18_linear_3038_16148)"/>
<g filter="url(#filter6_i_3038_16148)">
<path d="M52.8891 81.4673H36.6797V48.5321C36.6797 46.7302 38.1571 45.2695 39.9797 45.2695H49.5891C51.4116 45.2695 52.8891 46.7302 52.8891 48.5321V81.4673Z" fill="url(#paint19_linear_3038_16148)"/>
</g>
<g filter="url(#filter7_f_3038_16148)">
<rect x="48.5625" y="47.7402" width="2.37952" height="31.6541" rx="1.18976" fill="url(#paint20_linear_3038_16148)"/>
</g>
<g filter="url(#filter8_i_3038_16148)">
<path d="M28.0845 81.4682H16.8636C15.057 81.4682 13.3574 81.015 11.875 80.2173V26.8328C11.875 25.031 13.3524 23.5703 15.175 23.5703H24.7844C26.6069 23.5703 28.0845 25.031 28.0845 26.8328V81.4682Z" fill="url(#paint21_linear_3038_16148)"/>
</g>
<g filter="url(#filter9_f_3038_16148)">
<rect x="24.6484" y="25.6445" width="2.37952" height="53.7505" rx="1.18976" fill="url(#paint22_linear_3038_16148)"/>
</g>
<defs>
<filter id="filter0_iii_3038_16148" x="5.40625" y="4.59766" width="79.2422" height="77.8711" filterUnits="userSpaceOnUse" color-interpolation-filters="sRGB">
<feFlood flood-opacity="0" result="BackgroundImageFix"/>
<feBlend mode="normal" in="SourceGraphic" in2="BackgroundImageFix" result="shape"/>
<feColorMatrix in="SourceAlpha" type="matrix" values="0 0 0 0 0 0 0 0 0 0 0 0 0 0 0 0 0 0 127 0" result="hardAlpha"/>
<feOffset dx="-1" dy="1"/>
<feGaussianBlur stdDeviation="1"/>
<feComposite in2="hardAlpha" operator="arithmetic" k2="-1" k3="1"/>
<feColorMatrix type="matrix" values="0 0 0 0 0.878431 0 0 0 0 0.87451 0 0 0 0 0.886275 0 0 0 1 0"/>
<feBlend mode="normal" in2="shape" result="effect1_innerShadow_3038_16148"/>
<feColorMatrix in="SourceAlpha" type="matrix" values="0 0 0 0 0 0 0 0 0 0 0 0 0 0 0 0 0 0 127 0" result="hardAlpha"/>
<feOffset dx="1.5" dy="-1"/>
<feGaussianBlur stdDeviation="1.5"/>
<feComposite in2="hardAlpha" operator="arithmetic" k2="-1" k3="1"/>
<feColorMatrix type="matrix" values="0 0 0 0 0.698039 0 0 0 0 0.67451 0 0 0 0 0.721569 0 0 0 1 0"/>
<feBlend mode="normal" in2="effect1_innerShadow_3038_16148" result="effect2_innerShadow_3038_16148"/>
<feColorMatrix in="SourceAlpha" type="matrix" values="0 0 0 0 0 0 0 0 0 0 0 0 0 0 0 0 0 0 127 0" result="hardAlpha"/>
<feOffset dx="0.25"/>
<feGaussianBlur stdDeviation="0.25"/>
<feComposite in2="hardAlpha" operator="arithmetic" k2="-1" k3="1"/>
<feColorMatrix type="matrix" values="0 0 0 0 0.729412 0 0 0 0 0.729412 0 0 0 0 0.729412 0 0 0 1 0"/>
<feBlend mode="normal" in2="effect2_innerShadow_3038_16148" result="effect3_innerShadow_3038_16148"/>
</filter>
<filter id="filter1_f_3038_16148" x="58.9219" y="18.1602" width="17.8203" height="62.2344" filterUnits="userSpaceOnUse" color-interpolation-filters="sRGB">
<feFlood flood-opacity="0" result="BackgroundImageFix"/>
<feBlend mode="normal" in="SourceGraphic" in2="BackgroundImageFix" result="shape"/>
<feGaussianBlur stdDeviation="0.5" result="effect1_foregroundBlur_3038_16148"/>
</filter>
<filter id="filter2_f_3038_16148" x="34.1172" y="45.3281" width="17.8203" height="36.2266" filterUnits="userSpaceOnUse" color-interpolation-filters="sRGB">
<feFlood flood-opacity="0" result="BackgroundImageFix"/>
<feBlend mode="normal" in="SourceGraphic" in2="BackgroundImageFix" result="shape"/>
<feGaussianBlur stdDeviation="0.5" result="effect1_foregroundBlur_3038_16148"/>
</filter>
<filter id="filter3_f_3038_16148" x="9.01562" y="24.6445" width="17.8203" height="54.6758" filterUnits="userSpaceOnUse" color-interpolation-filters="sRGB">
<feFlood flood-opacity="0" result="BackgroundImageFix"/>
<feBlend mode="normal" in="SourceGraphic" in2="BackgroundImageFix" result="shape"/>
<feGaussianBlur stdDeviation="0.5" result="effect1_foregroundBlur_3038_16148"/>
</filter>
<filter id="filter4_i_3038_16148" x="61.4844" y="15.2188" width="16.9609" height="66.248" filterUnits="userSpaceOnUse" color-interpolation-filters="sRGB">
<feFlood flood-opacity="0" result="BackgroundImageFix"/>
<feBlend mode="normal" in="SourceGraphic" in2="BackgroundImageFix" result="shape"/>
<feColorMatrix in="SourceAlpha" type="matrix" values="0 0 0 0 0 0 0 0 0 0 0 0 0 0 0 0 0 0 127 0" result="hardAlpha"/>
<feOffset dx="0.75"/>
<feGaussianBlur stdDeviation="0.5"/>
<feComposite in2="hardAlpha" operator="arithmetic" k2="-1" k3="1"/>
<feColorMatrix type="matrix" values="0 0 0 0 0.203922 0 0 0 0 0.482353 0 0 0 0 0.74902 0 0 0 1 0"/>
<feBlend mode="normal" in2="shape" result="effect1_innerShadow_3038_16148"/>
</filter>
<filter id="filter5_f_3038_16148" x="72.3672" y="16.7559" width="4.38281" height="63.1758" filterUnits="userSpaceOnUse" color-interpolation-filters="sRGB">
<feFlood flood-opacity="0" result="BackgroundImageFix"/>
<feBlend mode="normal" in="SourceGraphic" in2="BackgroundImageFix" result="shape"/>
<feGaussianBlur stdDeviation="0.5" result="effect1_foregroundBlur_3038_16148"/>
</filter>
<filter id="filter6_i_3038_16148" x="36.6797" y="45.2695" width="16.9609" height="36.1973" filterUnits="userSpaceOnUse" color-interpolation-filters="sRGB">
<feFlood flood-opacity="0" result="BackgroundImageFix"/>
<feBlend mode="normal" in="SourceGraphic" in2="BackgroundImageFix" result="shape"/>
<feColorMatrix in="SourceAlpha" type="matrix" values="0 0 0 0 0 0 0 0 0 0 0 0 0 0 0 0 0 0 127 0" result="hardAlpha"/>
<feOffset dx="0.75"/>
<feGaussianBlur stdDeviation="0.5"/>
<feComposite in2="hardAlpha" operator="arithmetic" k2="-1" k3="1"/>
<feColorMatrix type="matrix" values="0 0 0 0 0.67451 0 0 0 0 0.239216 0 0 0 0 0.372549 0 0 0 1 0"/>
<feBlend mode="normal" in2="shape" result="effect1_innerShadow_3038_16148"/>
</filter>
<filter id="filter7_f_3038_16148" x="47.5625" y="46.7402" width="4.38281" height="33.6543" filterUnits="userSpaceOnUse" color-interpolation-filters="sRGB">
<feFlood flood-opacity="0" result="BackgroundImageFix"/>
<feBlend mode="normal" in="SourceGraphic" in2="BackgroundImageFix" result="shape"/>
<feGaussianBlur stdDeviation="0.5" result="effect1_foregroundBlur_3038_16148"/>
</filter>
<filter id="filter8_i_3038_16148" x="11.875" y="23.5703" width="16.9609" height="57.8984" filterUnits="userSpaceOnUse" color-interpolation-filters="sRGB">
<feFlood flood-opacity="0" result="BackgroundImageFix"/>
<feBlend mode="normal" in="SourceGraphic" in2="BackgroundImageFix" result="shape"/>
<feColorMatrix in="SourceAlpha" type="matrix" values="0 0 0 0 0 0 0 0 0 0 0 0 0 0 0 0 0 0 127 0" result="hardAlpha"/>
<feOffset dx="0.75"/>
<feGaussianBlur stdDeviation="0.5"/>
<feComposite in2="hardAlpha" operator="arithmetic" k2="-1" k3="1"/>
<feColorMatrix type="matrix" values="0 0 0 0 0.415686 0 0 0 0 0.792157 0 0 0 0 0.466667 0 0 0 1 0"/>
<feBlend mode="normal" in2="shape" result="effect1_innerShadow_3038_16148"/>
</filter>
<filter id="filter9_f_3038_16148" x="23.6484" y="24.6445" width="4.38281" height="55.75" filterUnits="userSpaceOnUse" color-interpolation-filters="sRGB">
<feFlood flood-opacity="0" result="BackgroundImageFix"/>
<feBlend mode="normal" in="SourceGraphic" in2="BackgroundImageFix" result="shape"/>
<feGaussianBlur stdDeviation="0.5" result="effect1_foregroundBlur_3038_16148"/>
</filter>
<linearGradient id="paint0_linear_3038_16148" x1="75.3711" y1="10.5679" x2="34.0253" y2="63.8725" gradientUnits="userSpaceOnUse">
<stop stop-color="#D8D1E0"/>
<stop offset="1" stop-color="#D5C9E3"/>
</linearGradient>
<linearGradient id="paint1_linear_3038_16148" x1="59.834" y1="82.1817" x2="59.834" y2="75.9351" gradientUnits="userSpaceOnUse">
<stop stop-color="#A88AC4"/>
<stop offset="1" stop-color="#CDBCE0" stop-opacity="0"/>
</linearGradient>
<radialGradient id="paint2_radial_3038_16148" cx="0" cy="0" r="1" gradientUnits="userSpaceOnUse" gradientTransform="translate(83.1484 44.6076) rotate(177.884) scale(15.3791 59.28)">
<stop stop-color="#F2EDF5"/>
<stop offset="1" stop-color="#DED3E7" stop-opacity="0"/>
</radialGradient>
<radialGradient id="paint3_radial_3038_16148" cx="0" cy="0" r="1" gradientUnits="userSpaceOnUse" gradientTransform="translate(82.1398 7.88532) rotate(138.758) scale(13.4954 13.9488)">
<stop stop-color="#F7F4F7"/>
<stop offset="1" stop-color="#E2DCE5" stop-opacity="0"/>
</radialGradient>
<linearGradient id="paint4_linear_3038_16148" x1="67.8339" y1="19.1602" x2="67.8339" y2="79.395" gradientUnits="userSpaceOnUse">
<stop stop-color="#9B98B3"/>
<stop offset="1" stop-color="#9C83AE"/>
</linearGradient>
<linearGradient id="paint5_linear_3038_16148" x1="44.7773" y1="11.8848" x2="44.7773" y2="81.4678" gradientUnits="userSpaceOnUse">
<stop stop-color="#C2BEC6"/>
<stop offset="1" stop-color="#BAACC6"/>
</linearGradient>
<linearGradient id="paint6_linear_3038_16148" x1="60.5041" y1="83.4121" x2="60.5041" y2="73.9476" gradientUnits="userSpaceOnUse">
<stop stop-color="#9E83B7"/>
<stop offset="1" stop-color="#9E83B7" stop-opacity="0"/>
</linearGradient>
<linearGradient id="paint7_linear_3038_16148" x1="3.74219" y1="47.2285" x2="18.3516" y2="47.2285" gradientUnits="userSpaceOnUse">
<stop stop-color="#96909C"/>
<stop offset="1" stop-color="#96909C" stop-opacity="0"/>
</linearGradient>
<linearGradient id="paint8_linear_3038_16148" x1="85.3828" y1="49.0977" x2="74.8984" y2="49.0977" gradientUnits="userSpaceOnUse">
<stop stop-color="#D6D1DA"/>
<stop offset="1" stop-color="#D6D1DA" stop-opacity="0"/>
</linearGradient>
<linearGradient id="paint9_linear_3038_16148" x1="67.2928" y1="49.857" x2="56.2288" y2="49.857" gradientUnits="userSpaceOnUse">
<stop offset="0.451612" stop-color="#7C7695"/>
<stop offset="1" stop-color="#7C7695" stop-opacity="0"/>
</linearGradient>
<linearGradient id="paint10_linear_3038_16148" x1="58.6081" y1="83.0248" x2="58.6081" y2="77.144" gradientUnits="userSpaceOnUse">
<stop stop-color="#9070AD"/>
<stop offset="1" stop-color="#9070AD" stop-opacity="0"/>
</linearGradient>
<linearGradient id="paint11_linear_3038_16148" x1="54.8011" y1="4.22199" x2="54.8011" y2="27.6276" gradientUnits="userSpaceOnUse">
<stop offset="0.668342" stop-color="#C3BFC7"/>
<stop offset="1" stop-color="#C3BFC7" stop-opacity="0"/>
</linearGradient>
<linearGradient id="paint12_linear_3038_16148" x1="43.0292" y1="46.3281" x2="43.0292" y2="80.5545" gradientUnits="userSpaceOnUse">
<stop stop-color="#9B98B3"/>
<stop offset="1" stop-color="#9C83AE"/>
</linearGradient>
<linearGradient id="paint13_linear_3038_16148" x1="17.9277" y1="25.6445" x2="17.9277" y2="78.3211" gradientUnits="userSpaceOnUse">
<stop stop-color="#9B98B3"/>
<stop offset="1" stop-color="#9C83AE"/>
</linearGradient>
<linearGradient id="paint14_linear_3038_16148" x1="69.5891" y1="15.2187" x2="69.5891" y2="81.4675" gradientUnits="userSpaceOnUse">
<stop offset="0.179782" stop-color="#36A4F2"/>
<stop offset="1" stop-color="#3E79CB"/>
</linearGradient>
<linearGradient id="paint15_linear_3038_16148" x1="60.5184" y1="80.0841" x2="65.5148" y2="79.8434" gradientUnits="userSpaceOnUse">
<stop offset="0.0113206" stop-color="#404E95"/>
<stop offset="1" stop-color="#2F66B3" stop-opacity="0"/>
</linearGradient>
<linearGradient id="paint16_linear_3038_16148" x1="74.5569" y1="17.7559" x2="74.5569" y2="78.9316" gradientUnits="userSpaceOnUse">
<stop stop-color="#53BFFF"/>
<stop offset="1" stop-color="#508EDC"/>
</linearGradient>
<radialGradient id="paint17_radial_3038_16148" cx="0" cy="0" r="1" gradientUnits="userSpaceOnUse" gradientTransform="translate(40.1681 56.914) rotate(-180) scale(6.78118 6.46889)">
<stop offset="0.22807" stop-color="#86738A"/>
<stop offset="1" stop-color="#86738A" stop-opacity="0"/>
</radialGradient>
<linearGradient id="paint18_linear_3038_16148" x1="4.95352" y1="47.5047" x2="17.2072" y2="47.5047" gradientUnits="userSpaceOnUse">
<stop stop-color="#88858D"/>
<stop offset="1" stop-color="#88858D" stop-opacity="0"/>
</linearGradient>
<linearGradient id="paint19_linear_3038_16148" x1="44.7844" y1="45.2695" x2="44.7844" y2="81.4673" gradientUnits="userSpaceOnUse">
<stop offset="0.179782" stop-color="#E93586"/>
<stop offset="1" stop-color="#DD385F"/>
</linearGradient>
<linearGradient id="paint20_linear_3038_16148" x1="49.7523" y1="47.7402" x2="49.7523" y2="79.3944" gradientUnits="userSpaceOnUse">
<stop stop-color="#FA5598"/>
<stop offset="1" stop-color="#F34F70"/>
</linearGradient>
<linearGradient id="paint21_linear_3038_16148" x1="19.9797" y1="23.5703" x2="19.9797" y2="81.4682" gradientUnits="userSpaceOnUse">
<stop offset="0.179782" stop-color="#ABE263"/>
<stop offset="1" stop-color="#61E19B"/>
</linearGradient>
<linearGradient id="paint22_linear_3038_16148" x1="25.8382" y1="25.6445" x2="25.8382" y2="79.3951" gradientUnits="userSpaceOnUse">
<stop stop-color="#C9FE70"/>
<stop offset="1" stop-color="#6CEDA7"/>
</linearGradient>
</defs>
</svg>
