<svg width="68" height="69" viewBox="0 0 68 69" fill="none" xmlns="http://www.w3.org/2000/svg">
<rect x="0.350586" y="0.453125" width="67.4067" height="68.3269" rx="12.4332" fill="#5EBEF4"/>
<g clip-path="url(#clip0_4953_16610)">
<g clip-path="url(#clip1_4953_16610)">
<path d="M14.8125 48.6221V19.5023C14.8125 17.7861 15.4867 16.1401 16.6868 14.9266C17.8869 13.713 19.5146 13.0313 21.2118 13.0312H51.0752C51.6409 13.0313 52.1835 13.2585 52.5835 13.663C52.9836 14.0675 53.2083 14.6162 53.2083 15.1883V54.0147C53.2083 54.5868 52.9836 55.1354 52.5835 55.54C52.1835 55.9445 51.6409 56.1717 51.0752 56.1717H22.2784C20.2983 56.1717 18.3993 55.3763 16.9992 53.9605C15.5991 52.5447 14.8125 50.6244 14.8125 48.6221ZM48.9421 51.8577V45.3866H22.2784C21.4298 45.3866 20.6159 45.7275 20.0159 46.3343C19.4158 46.9411 19.0787 47.764 19.0787 48.6221C19.0787 49.4803 19.4158 50.3032 20.0159 50.91C20.6159 51.5168 21.4298 51.8577 22.2784 51.8577H48.9421ZM29.7442 17.3453H21.2118C20.6461 17.3453 20.1035 17.5726 19.7035 17.9771C19.3034 18.3816 19.0787 18.9302 19.0787 19.5023V41.7995C20.0785 41.3194 21.1716 41.0711 22.2784 41.0726H48.9421V17.3453H44.6759V34.6015L37.2101 30.2874L29.7442 34.6015V17.3453Z" fill="white"/>
</g>
</g>
<defs>
<clipPath id="clip0_4953_16610">
<rect width="44.631" height="45.3212" fill="white" transform="translate(11.6235 11.9531)"/>
</clipPath>
<clipPath id="clip1_4953_16610">
<rect width="51.1944" height="51.7686" fill="white" transform="translate(8.41309 8.71875)"/>
</clipPath>
</defs>
</svg>
