<svg width="61" height="60" viewBox="0 0 61 60" fill="none" xmlns="http://www.w3.org/2000/svg">
<rect x="0.774414" y="0.179688" width="59.6307" height="59.6307" rx="11.5949" fill="#2388FF"/>
<g clip-path="url(#clip0_4953_16594)">
<g clip-path="url(#clip1_4953_16594)">
<path d="M39.2178 16.1227H46.1195C46.5771 16.1227 47.016 16.3045 47.3396 16.6281C47.6632 16.9517 47.845 17.3905 47.845 17.8482V45.455C47.845 45.9126 47.6632 46.3515 47.3396 46.675C47.016 46.9986 46.5771 47.1804 46.1195 47.1804H15.0619C14.6042 47.1804 14.1654 46.9986 13.8418 46.675C13.5182 46.3515 13.3364 45.9126 13.3364 45.455V17.8482C13.3364 17.3905 13.5182 16.9517 13.8418 16.6281C14.1654 16.3045 14.6042 16.1227 15.0619 16.1227H21.9636V12.6719H25.4144V16.1227H35.767V12.6719H39.2178V16.1227ZM16.7873 26.4753V43.7296H44.3941V26.4753H16.7873ZM20.2381 33.377H28.8653V40.2787H20.2381V33.377Z" fill="white"/>
</g>
</g>
<defs>
<clipPath id="clip0_4953_16594">
<rect width="44.5574" height="44.7231" fill="white" transform="translate(8.31152 7.63281)"/>
</clipPath>
<clipPath id="clip1_4953_16594">
<rect width="41.4102" height="41.4102" fill="white" transform="translate(9.88574 10.9531)"/>
</clipPath>
</defs>
</svg>
