<svg width="71" height="71" viewBox="0 0 71 71" fill="none" xmlns="http://www.w3.org/2000/svg">
<rect x="0.976562" y="0.867188" width="69.8499" height="69.2011" rx="15.1377" fill="#2388FF"/>
<g clip-path="url(#clip0_4962_16491)">
<path d="M44.3292 14.7188L54.7364 25.0809V54.1115C54.7359 54.6569 54.5179 55.1798 54.1303 55.5653C53.7428 55.9508 53.2174 56.1673 52.6695 56.1673H19.3374C18.7907 56.1635 18.2676 55.9458 17.8808 55.5611C17.4941 55.1765 17.2749 54.6557 17.2705 54.1115V16.7746C17.2705 15.6389 18.1967 14.7188 19.3374 14.7188H44.3292ZM47.7782 35.443L40.4161 28.1149L37.475 31.0495L41.8898 35.443L37.4771 39.8387L40.4182 42.7712L47.7782 35.443ZM24.2288 35.443L31.5887 42.7712L34.5319 39.8387L30.1172 35.443L34.5298 31.0474L31.5908 28.1149L24.2288 35.443Z" fill="white"/>
</g>
<defs>
<clipPath id="clip0_4962_16491">
<rect width="49.9546" height="49.7383" fill="white" transform="translate(11.0269 10.5781)"/>
</clipPath>
</defs>
</svg>
