<svg width="62" height="61" viewBox="0 0 62 61" fill="none" xmlns="http://www.w3.org/2000/svg">
<rect x="0.687012" y="0.570312" width="60.3764" height="60.3764" rx="11.7399" fill="#5EBEF4"/>
<g clip-path="url(#clip0_4953_16601)">
<path d="M22.1622 42.8432L14.4727 48.8843V16.9526C14.4727 16.4948 14.6545 16.0558 14.9782 15.7321C15.3019 15.4084 15.7409 15.2266 16.1987 15.2266H47.2674C47.7252 15.2266 48.1642 15.4084 48.4879 15.7321C48.8116 16.0558 48.9935 16.4948 48.9935 16.9526V41.1172C48.9935 41.5749 48.8116 42.014 48.4879 42.3377C48.1642 42.6613 47.7252 42.8432 47.2674 42.8432H22.1622ZM30.5127 30.9698L26.2408 26.6978L23.8002 29.1402L30.5127 35.8527L40.277 26.0885L37.8363 23.6479L30.5127 30.9698Z" fill="white"/>
</g>
<defs>
<clipPath id="clip0_4953_16601">
<rect width="41.425" height="41.425" fill="white" transform="translate(11.0215 10.0469)"/>
</clipPath>
</defs>
</svg>
