<svg width="47" height="46" viewBox="0 0 47 46" fill="none" xmlns="http://www.w3.org/2000/svg">
<path opacity="0.4" d="M44.9485 34.2166L37.1992 26.6447C38.3734 24.1208 39.0778 21.5968 39.0778 18.8434C39.0778 13.7955 37.1992 9.20642 33.442 5.76465C25.9276 -1.5778 13.9515 -1.5778 6.43708 5.76465C-1.07733 13.1071 -1.07733 24.8091 6.43708 32.1516C9.95947 35.5934 14.8908 37.6584 19.8221 37.6584C22.64 37.6584 25.4579 36.9701 27.8062 35.8228L35.5554 43.3947C36.7296 44.542 38.6082 45.2303 40.252 45.2303C41.8957 45.2303 43.5395 44.542 44.9485 43.3947C47.5315 40.6413 47.5315 36.5112 44.9485 34.2166ZM9.72464 28.4804C4.08883 22.9735 4.08883 14.0249 9.72464 8.74752C12.5425 5.9941 16.0649 4.61739 19.8221 4.61739C23.5793 4.61739 27.1017 5.9941 29.9196 8.74752C32.7375 11.5009 34.1465 14.9427 34.1465 18.6139C34.1465 22.2852 32.7375 25.9564 29.9196 28.4804C27.1017 31.0043 23.5793 32.6105 19.8221 32.6105C16.0649 32.6105 12.3077 31.2338 9.72464 28.4804Z" fill="#98A2B2"/>
</svg>
